<svg width="96" height="96" viewBox="0 0 96 96" fill="none" xmlns="http://www.w3.org/2000/svg">
<g clip-path="url(#clip0_64_219)">
<path d="M0 0H96V96H0V0Z" fill="#CA1517"/>
<path d="M34.9046 54.5818C34.0543 54.6403 33.1574 54.5563 32.3836 54.9742C31.7034 55.0161 31.019 54.9911 30.3472 55.0998C29.9093 55.4049 29.9175 55.9861 29.7432 56.4334C30.4191 56.4209 31.0954 56.3998 31.7671 56.3747L31.5075 56.8847L32.0604 56.6465L32.0556 57.1982L32.5999 57.2362L32.3788 57.9379L32.821 57.9715C32.4511 60.417 33.939 63.0591 36.5961 63.335C37.0213 65.2621 36.8682 67.3726 35.614 68.982C35.2867 69.0489 34.6406 69.1869 34.3175 69.2538C34.4322 69.4168 34.666 69.7349 34.7808 69.8937C35.3292 69.8728 35.8777 69.8435 36.4261 69.8184C37.0255 67.4565 38.1647 65.2788 39.117 63.0465C40.4987 64.798 41.4258 66.9885 41.1155 69.2458C40.7371 69.4883 40.3625 69.739 39.9926 69.9898C41.0342 70.7757 42.0591 70.0438 43.0242 69.5213C43.6661 67.9413 44.8266 66.591 45.1496 64.8897C45.4132 63.9282 45.8597 63.0295 46.3572 62.1642C46.3232 63.4559 47.2539 64.5008 47.2795 65.7757C47.3475 67.2095 48.1765 69.1157 46.544 69.9978C47.1902 70.1942 47.8576 70.2653 48.5294 70.1441C48.3125 69.2537 48.1429 68.3425 48.1768 67.4229C48.3087 65.6421 47.9598 63.811 48.6825 62.1096C49.2947 62.3354 49.9111 62.5657 50.5446 62.7287C50.1492 62.2396 49.6519 61.8465 49.1502 61.4661C49.1163 60.6677 49.2822 59.8023 48.8612 59.0749C48.3596 58.2054 47.5559 57.5411 47.135 56.6256C46.8757 56.0696 46.5145 55.4595 45.8173 55.426C44.7246 55.0916 44.2994 56.3998 43.7254 57.0101C43.399 56.397 43.1382 55.7511 42.9476 55.0831C42.1696 54.9786 41.3196 54.7692 40.5799 55.1413C39.4915 56.4539 38.2117 57.5914 37.0893 58.8747C36.5707 58.8699 36.0518 58.8536 35.5331 58.841C35.2737 57.4282 36.0307 55.7479 34.9041 54.5817L34.9046 54.5818ZM43.6705 63.381C43.6109 65.3791 43.7729 67.8287 41.8981 69.1412C41.6303 67.2894 41.9449 65.4163 41.9958 63.5561C42.5527 63.506 43.1135 63.4437 43.6704 63.381H43.6705Z" fill="#CA1517"/>
<g clip-path="url(#clip1_64_219)">
<path d="M69.8438 52.0614H26.0625V71.1221H69.8438V52.0614Z" fill="#CA1517"/>
<path d="M61.1522 62.8141H61.6065V63.5295H61.1408C60.993 63.5295 60.9584 63.4501 60.9584 63.2906V63.0406C60.9581 62.8929 60.993 62.8141 61.1522 62.8141ZM63.4577 61.0281C63.4577 60.0833 63.0605 59.4245 61.9013 59.4245H59.3797V61.1526C59.5158 61.05 59.7658 61.016 59.9822 61.016H61.4358C61.5834 61.016 61.6062 61.0624 61.6062 61.2213V61.4833H60.6519C59.505 61.4833 59.1072 62.1419 59.1072 63.0746V63.4844C59.1072 64.4505 59.5155 65.1109 60.6519 65.1109H63.4577V61.0281ZM57.275 65.1109L58.7411 59.4245H56.7316L56.2316 63.086L55.7084 59.4245H53.6082L55.0616 65.1109H57.275ZM50.7291 62.8141H51.1834V63.5295H50.718C50.5698 63.5295 50.5365 63.4501 50.5365 63.2906V63.0406C50.5365 62.8929 50.5699 62.8141 50.7291 62.8141ZM53.0346 61.0281C53.0346 60.0833 52.6371 59.4245 51.4797 59.4245H48.9579V61.1526C49.093 61.05 49.344 61.016 49.5591 61.016H51.0137C51.1609 61.016 51.1837 61.0624 51.1837 61.2213V61.4833H50.2294C49.0826 61.4833 48.6854 62.1419 48.6854 63.0746V63.4844C48.6854 64.4505 49.093 65.1109 50.2294 65.1109H53.0349L53.0346 61.0281ZM45.7355 65.1109H47.587V57.1499H45.7355V65.1109ZM41.9554 59.4245V57.1499H40.1042V65.1112H41.9554V61.05H42.444C42.5801 61.05 42.602 61.1078 42.602 61.2667V65.1112H44.4544V61.05C44.4544 60.0954 44.0791 59.4245 42.898 59.4245H41.9554ZM36.8108 59.0153H38.6617V57.1499H36.8108V59.0153ZM36.8108 65.1109H38.6617V59.4248H36.8108V65.1109ZM33.3816 63.3252H32.6655C32.5637 63.3252 32.4504 63.3138 32.3365 63.2681V65.1109H33.9609C35.1081 65.1109 35.4942 64.4505 35.4942 63.4955V57.1499H33.552V63.1095C33.552 63.2681 33.5056 63.3252 33.3816 63.3252Z" fill="white"/>
</g>
<circle cx="47.9531" cy="38.6606" r="13.8169" fill="#CA1517"/>
<path fill-rule="evenodd" clip-rule="evenodd" d="M61.77 38.6606C61.77 46.2915 55.5841 52.4775 47.9531 52.4775C40.3222 52.4775 34.1362 46.2915 34.1362 38.6606C34.1362 31.0298 40.3222 24.8438 47.9531 24.8438C55.5841 24.8438 61.77 31.0298 61.77 38.6606ZM49.2537 43.7548L49.45 29.3098H46.7808L46.977 43.7548H49.2537ZM46.8691 49.044C47.2158 49.3908 47.6313 49.5641 48.1154 49.5641C48.4425 49.5641 48.7369 49.4856 48.9986 49.3286C49.2668 49.1651 49.4794 48.9492 49.6364 48.681C49.8 48.4127 49.8817 48.1183 49.8817 47.7978C49.8817 47.3137 49.7084 46.8982 49.3616 46.5515C49.0149 46.2048 48.5995 46.0314 48.1154 46.0314C47.6313 46.0314 47.2158 46.2048 46.8691 46.5515C46.5224 46.8982 46.349 47.3137 46.349 47.7978C46.349 48.2819 46.5224 48.6973 46.8691 49.044Z" fill="white"/>
</g>
<defs>
<clipPath id="clip0_64_219">
<rect width="96" height="96" fill="white"/>
</clipPath>
<clipPath id="clip1_64_219">
<rect width="43.7812" height="19.0607" fill="white" transform="translate(26.0625 52.0614)"/>
</clipPath>
</defs>
</svg>
