<svg width="256" height="256" viewBox="0 0 256 256" fill="none" xmlns="http://www.w3.org/2000/svg">
<g clip-path="url(#clip0_64_245)">
<path d="M0 0H256V256H0V0Z" fill="#CA1517"/>
<path d="M93.0788 145.551C90.8114 145.707 88.4196 145.483 86.3563 146.598C84.5425 146.71 82.7172 146.643 80.9259 146.933C79.7582 147.746 79.7798 149.296 79.3151 150.489C81.1177 150.456 82.9211 150.4 84.7123 150.332L84.0198 151.693L85.4944 151.057L85.4816 152.529L86.9331 152.63L86.3434 154.501L87.5226 154.591C86.5362 161.112 90.5041 168.158 97.5896 168.893C98.7233 174.032 98.3151 179.66 94.9707 183.952C94.0978 184.13 92.3748 184.498 91.5132 184.677C91.8191 185.112 92.4426 185.96 92.7487 186.383C94.2112 186.328 95.6737 186.249 97.1362 186.182C98.7347 179.884 101.773 174.077 104.312 168.124C107.997 172.795 110.469 178.636 109.641 184.656C108.632 185.302 107.633 185.971 106.647 186.64C109.425 188.735 112.158 186.784 114.731 185.39C116.443 181.177 119.538 177.576 120.399 173.039C121.102 170.475 122.293 168.079 123.619 165.771C123.528 169.216 126.01 172.002 126.079 175.402C126.26 179.225 128.471 184.309 124.117 186.661C125.841 187.185 127.62 187.374 129.412 187.051C128.833 184.677 128.381 182.247 128.472 179.794C128.823 175.046 127.893 170.163 129.82 165.626C131.453 166.228 133.096 166.842 134.786 167.277C133.731 165.972 132.405 164.924 131.067 163.91C130.977 161.781 131.419 159.473 130.297 157.533C128.959 155.215 126.816 153.443 125.693 151.002C125.002 149.519 124.039 147.892 122.179 147.803C119.266 146.911 118.132 150.4 116.601 152.027C115.73 150.392 115.035 148.67 114.527 146.888C112.452 146.61 110.186 146.051 108.213 147.043C105.311 150.544 101.898 153.577 98.9048 156.999C97.5218 156.987 96.138 156.943 94.7548 156.909C94.0632 153.142 96.0818 148.661 93.0775 145.551L93.0788 145.551ZM116.455 169.016C116.296 174.344 116.728 180.876 111.728 184.377C111.014 179.438 111.853 174.444 111.989 169.483C113.474 169.349 114.969 169.183 116.454 169.016H116.455Z" fill="#CA1517"/>
<g clip-path="url(#clip1_64_245)">
<path d="M201 141.386H54V205.384H201V141.386Z" fill="#CA1517"/>
<path d="M171.817 177.489H173.343V179.891H171.779C171.283 179.891 171.166 179.625 171.166 179.089V178.25C171.165 177.754 171.283 177.489 171.817 177.489ZM179.558 171.493C179.558 168.321 178.225 166.108 174.332 166.108H165.866V171.911C166.323 171.566 167.162 171.452 167.889 171.452H172.77C173.265 171.452 173.342 171.608 173.342 172.141V173.021H170.138C166.287 173.021 164.951 175.232 164.951 178.364V179.74C164.951 182.984 166.322 185.201 170.138 185.201H179.558V171.493ZM158.799 185.201L163.722 166.108H156.975L155.296 178.402L153.539 166.108H146.488L151.367 185.201H158.799ZM136.821 177.489H138.346V179.891H136.783C136.286 179.891 136.174 179.625 136.174 179.089V178.25C136.174 177.754 136.286 177.489 136.821 177.489ZM144.562 171.493C144.562 168.321 143.227 166.108 139.341 166.108H130.874V171.911C131.327 171.566 132.17 171.452 132.892 171.452H137.776C138.27 171.452 138.347 171.608 138.347 172.141V173.021H135.143C131.292 173.021 129.959 175.232 129.959 178.364V179.74C129.959 182.984 131.327 185.201 135.143 185.201H144.563L144.562 171.493ZM120.054 185.201H126.271V158.471H120.054V185.201ZM107.362 166.108V158.471H101.147V185.202H107.362V171.566H109.003C109.46 171.566 109.533 171.761 109.533 172.294V185.202H115.753V171.566C115.753 168.361 114.493 166.108 110.527 166.108H107.362ZM90.0886 164.735H96.303V158.471H90.0886V164.735ZM90.0886 185.201H96.303V166.109H90.0886V185.201ZM78.5746 179.206H76.1704C75.8285 179.206 75.4482 179.167 75.0658 179.014V185.201H80.5197C84.3715 185.201 85.6679 182.984 85.6679 179.777V158.471H79.1466V178.481C79.1466 179.014 78.9911 179.206 78.5746 179.206Z" fill="white"/>
</g>
<circle cx="127.5" cy="96.3916" r="46.3916" fill="#CA1517"/>
<path fill-rule="evenodd" clip-rule="evenodd" d="M173.892 96.3916C173.892 122.013 153.122 142.783 127.5 142.783C101.878 142.783 81.1083 122.013 81.1083 96.3916C81.1083 70.7703 101.878 50 127.5 50C153.122 50 173.892 70.7703 173.892 96.3916ZM131.867 113.496L132.526 64.9953H123.564L124.223 113.496H131.867ZM123.86 131.255C125.024 132.419 126.419 133.001 128.045 133.001C129.143 133.001 130.131 132.738 131.01 132.21C131.911 131.661 132.625 130.936 133.152 130.036C133.701 129.135 133.975 128.147 133.975 127.07C133.975 125.445 133.393 124.05 132.229 122.886C131.065 121.722 129.67 121.14 128.045 121.14C126.419 121.14 125.024 121.722 123.86 122.886C122.696 124.05 122.114 125.445 122.114 127.07C122.114 128.696 122.696 130.091 123.86 131.255Z" fill="white"/>
</g>
<defs>
<clipPath id="clip0_64_245">
<rect width="256" height="256" fill="white"/>
</clipPath>
<clipPath id="clip1_64_245">
<rect width="147" height="63.9981" fill="white" transform="translate(54 141.386)"/>
</clipPath>
</defs>
</svg>
