<svg width="150" height="150" viewBox="0 0 150 150" fill="none" xmlns="http://www.w3.org/2000/svg">
<g clip-path="url(#clip0_64_180)">
<path d="M0 0H150V150H0V0Z" fill="#CA1517"/>
<path d="M54.5383 85.284C53.2098 85.3754 51.8083 85.2441 50.5994 85.8972C49.5366 85.9626 48.4671 85.9235 47.4175 86.0934C46.7333 86.5701 46.746 87.4783 46.4736 88.1772C47.5299 88.1576 48.5865 88.1247 49.6361 88.0854L49.2303 88.8823L50.0943 88.5102L50.0868 89.3722L50.9373 89.4315L50.5918 90.528L51.2827 90.5805C50.7048 94.4015 53.0297 98.5298 57.1814 98.9609C57.8457 101.972 57.6065 105.27 55.6469 107.784C55.1354 107.889 54.1258 108.105 53.621 108.209C53.8002 108.464 54.1656 108.961 54.3449 109.209C55.2018 109.176 56.0588 109.13 56.9157 109.091C57.8523 105.401 59.6323 101.998 61.1202 98.5101C63.2792 101.247 64.7277 104.67 64.2429 108.197C63.6516 108.575 63.0663 108.967 62.4884 109.359C64.1159 110.587 65.7174 109.443 67.2252 108.627C68.2283 106.158 70.0415 104.048 70.5462 101.39C70.9581 99.8878 71.6558 98.4835 72.433 97.1315C72.3799 99.1497 73.8342 100.782 73.8741 102.774C73.9803 105.015 75.2757 107.993 72.7249 109.371C73.7346 109.678 74.7775 109.79 75.8271 109.6C75.4882 108.209 75.2232 106.785 75.2763 105.348C75.4822 102.566 74.9371 99.7047 76.0664 97.0463C77.0229 97.399 77.9861 97.7589 78.9759 98.0136C78.3581 97.2494 77.581 96.6351 76.7971 96.0408C76.7441 94.7932 77.0034 93.441 76.3456 92.3045C75.5619 90.9459 74.306 89.9079 73.6484 88.4775C73.2432 87.6087 72.6788 86.6554 71.5894 86.6031C69.8822 86.0806 69.2177 88.1247 68.3209 89.0783C67.8108 88.1203 67.4034 87.111 67.1055 86.0673C65.8899 85.9041 64.5618 85.5769 63.406 86.1582C61.7055 88.2091 59.7057 89.9865 57.952 91.9917C57.1416 91.9842 56.3308 91.9587 55.5204 91.9391C55.1151 89.7315 56.2979 87.1061 54.5376 85.2838L54.5383 85.284ZM68.235 99.0327C68.142 102.155 68.3951 105.982 65.4657 108.033C65.0472 105.14 65.5388 102.213 65.6184 99.3064C66.4886 99.2281 67.3647 99.1307 68.235 99.0327H68.235Z" fill="#CA1517"/>
<g clip-path="url(#clip1_64_180)">
<path d="M119.277 83.5013H30V122.369H119.277V83.5013Z" fill="#CA1517"/>
<path d="M101.554 105.428H102.48V106.887H101.531C101.229 106.887 101.159 106.725 101.159 106.4V105.89C101.158 105.589 101.229 105.428 101.554 105.428ZM106.255 101.786C106.255 99.8596 105.445 98.516 103.081 98.516H97.9394V102.04C98.2169 101.831 98.7267 101.762 99.1679 101.762H102.132C102.433 101.762 102.48 101.856 102.48 102.18V102.714H100.534C98.1949 102.714 97.3837 104.057 97.3837 105.959V106.795C97.3837 108.765 98.2163 110.112 100.534 110.112H106.255V101.786ZM93.6476 110.112L96.6371 98.516H92.5394L91.5198 105.983L90.453 98.516H86.1703L89.1339 110.112H93.6476ZM80.2994 105.428H81.2258V106.887H80.2767C79.9746 106.887 79.9067 106.725 79.9067 106.4V105.89C79.9067 105.589 79.9746 105.428 80.2994 105.428ZM85.0007 101.786C85.0007 99.8596 84.19 98.516 81.83 98.516H76.6875V102.04C76.9631 101.831 77.4748 101.762 77.9135 101.762H80.8797C81.1798 101.762 81.2264 101.856 81.2264 102.18V102.714H79.2804C76.9418 102.714 76.1318 104.057 76.1318 105.959V106.795C76.1318 108.765 76.9631 110.112 79.2804 110.112H85.0013L85.0007 101.786ZM70.1166 110.112H73.8921V93.8778H70.1166V110.112ZM62.4083 98.516V93.8778H58.6334V110.112H62.4083V101.831H63.4046C63.6821 101.831 63.7268 101.949 63.7268 102.273V110.112H67.5042V101.831C67.5042 99.8842 66.7389 98.516 64.3304 98.516H62.4083ZM51.9176 97.6817H55.6918V93.8778H51.9176V97.6817ZM51.9176 110.112H55.6918V98.5167H51.9176V110.112ZM44.9248 106.47H43.4647C43.257 106.47 43.0261 106.447 42.7938 106.354V110.112H46.1061C48.4455 110.112 49.2328 108.765 49.2328 106.818V93.8778H45.2722V106.031C45.2722 106.354 45.1778 106.47 44.9248 106.47Z" fill="white"/>
</g>
<circle cx="74.6387" cy="56.175" r="28.175" fill="#CA1517"/>
<path fill-rule="evenodd" clip-rule="evenodd" d="M102.814 56.175C102.814 71.7356 90.1995 84.35 74.6387 84.35C59.0779 84.35 46.4637 71.7356 46.4637 56.175C46.4637 40.6144 59.0779 28 74.6387 28C90.1995 28 102.814 40.6144 102.814 56.175ZM77.2908 66.5627L77.691 37.1071H72.2481L72.6483 66.5627H77.2908ZM72.4282 77.3485C73.1353 78.0555 73.9824 78.409 74.9696 78.409C75.6366 78.409 76.2369 78.2489 76.7705 77.9288C77.3175 77.5953 77.751 77.155 78.0712 76.6081C78.4047 76.0611 78.5715 75.4608 78.5715 74.8071C78.5715 73.8199 78.218 72.9728 77.5109 72.2658C76.8039 71.5587 75.9568 71.2052 74.9696 71.2052C73.9824 71.2052 73.1353 71.5587 72.4282 72.2658C71.7212 72.9728 71.3677 73.8199 71.3677 74.8071C71.3677 75.7943 71.7212 76.6414 72.4282 77.3485Z" fill="white"/>
</g>
<defs>
<clipPath id="clip0_64_180">
<rect width="150" height="150" fill="white"/>
</clipPath>
<clipPath id="clip1_64_180">
<rect width="89.2773" height="38.8679" fill="white" transform="translate(30 83.5013)"/>
</clipPath>
</defs>
</svg>
