<svg width="128" height="128" viewBox="0 0 128 128" fill="none" xmlns="http://www.w3.org/2000/svg">
<g clip-path="url(#clip0_64_167)">
<path d="M0 0H128V128H0V0Z" fill="#CA1517"/>
<path d="M46.5394 72.7756C45.4057 72.8537 44.2098 72.7417 43.1782 73.2989C42.2713 73.3547 41.3586 73.3214 40.463 73.4663C39.8792 73.8732 39.89 74.6482 39.6576 75.2445C40.5589 75.2278 41.4606 75.1997 42.3562 75.1662L42.01 75.8462L42.7473 75.5287L42.7409 76.2643L43.4666 76.3148L43.1718 77.2505L43.7613 77.2953C43.2682 80.5559 45.2521 84.0787 48.7949 84.4466C49.3617 87.016 49.1576 89.83 47.4854 91.9759C47.049 92.0652 46.1874 92.2492 45.7567 92.3384C45.9096 92.5557 46.2214 92.9798 46.3744 93.1915C47.1057 93.1637 47.8369 93.1246 48.5682 93.0911C49.3674 89.942 50.8863 87.0383 52.156 84.062C53.9983 86.3973 55.2344 89.318 54.8207 92.3277C54.3161 92.651 53.8167 92.9853 53.3235 93.3197C54.7123 94.3675 56.0789 93.3917 57.3656 92.6951C58.2216 90.5883 59.7688 88.788 60.1995 86.5195C60.551 85.2376 61.1464 84.0393 61.8096 82.8855C61.7643 84.6078 63.0053 86.001 63.0393 87.7009C63.13 89.6126 64.2354 92.1543 62.0587 93.3303C62.9203 93.5922 63.8102 93.6871 64.7058 93.5254C64.4167 92.3382 64.1905 91.1234 64.2358 89.8971C64.4116 87.5228 63.9464 85.0813 64.9101 82.8128C65.7263 83.1138 66.5482 83.4209 67.3928 83.6382C66.8657 82.9861 66.2026 82.4619 65.5336 81.9548C65.4884 80.8902 65.7096 79.7363 65.1483 78.7665C64.4795 77.6072 63.4079 76.7214 62.8467 75.5008C62.5009 74.7595 62.0193 73.9459 61.0897 73.9013C59.6329 73.4554 59.0658 75.1997 58.3006 76.0135C57.8653 75.196 57.5177 74.3347 57.2635 73.4441C56.2262 73.3048 55.0929 73.0256 54.1065 73.5217C52.6554 75.2718 50.949 76.7884 49.4525 78.4996C48.761 78.4932 48.069 78.4714 47.3775 78.4547C47.0317 76.5708 48.041 74.3305 46.5388 72.7755L46.5394 72.7756ZM58.2273 84.5079C58.148 87.1721 58.3639 90.4382 55.8642 92.1883C55.5071 89.7191 55.9265 87.2217 55.9945 84.7415C56.737 84.6747 57.4847 84.5915 58.2273 84.5079H58.2273Z" fill="#CA1517"/>
<g clip-path="url(#clip1_64_167)">
<path d="M93.125 69.4152H34.75V94.8294H93.125V69.4152Z" fill="#CA1517"/>
<path d="M81.5363 83.7522H82.142V84.7061H81.521C81.3239 84.7061 81.2778 84.6002 81.2778 84.3876V84.0542C81.2774 83.8573 81.3239 83.7522 81.5363 83.7522ZM84.6102 81.3709C84.6102 80.1112 84.0806 79.2327 82.535 79.2327H79.1729V81.5369C79.3544 81.4001 79.6877 81.3548 79.9762 81.3548H81.9144C82.1111 81.3548 82.1416 81.4166 82.1416 81.6284V81.9779H80.8692C79.34 81.9779 78.8095 82.8559 78.8095 84.0995V84.6459C78.8095 85.934 79.354 86.8146 80.8692 86.8146H84.6102V81.3709ZM76.3667 86.8146L78.3214 79.2327H75.6421L74.9754 84.1148L74.2779 79.2327H71.4776L73.4154 86.8146H76.3667ZM67.6388 83.7522H68.2445V84.7061H67.624C67.4264 84.7061 67.382 84.6002 67.382 84.3876V84.0542C67.382 83.8573 67.4264 83.7522 67.6388 83.7522ZM70.7128 81.3709C70.7128 80.1112 70.1827 79.2327 68.6396 79.2327H65.2771V81.5369C65.4573 81.4001 65.7919 81.3548 66.0787 81.3548H68.0182C68.2145 81.3548 68.2449 81.4166 68.2449 81.6284V81.9779H66.9725C65.4434 81.9779 64.9138 82.8559 64.9138 84.0995V84.6459C64.9138 85.934 65.4573 86.8146 66.9725 86.8146H70.7132L70.7128 81.3709ZM60.9806 86.8146H63.4493V76.2H60.9806V86.8146ZM55.9405 79.2327V76.2H53.4723V86.815H55.9405V81.4001H56.5919C56.7734 81.4001 56.8026 81.4772 56.8026 81.689V86.815H59.2725V81.4001C59.2725 80.1273 58.7721 79.2327 57.1973 79.2327H55.9405ZM49.081 78.6872H51.5489V76.2H49.081V78.6872ZM49.081 86.8146H51.5489V79.2331H49.081V86.8146ZM44.5087 84.4337H43.554C43.4182 84.4337 43.2672 84.4185 43.1154 84.3575V86.8146H45.2812C46.8107 86.8146 47.3255 85.934 47.3255 84.6608V76.2H44.7359V84.1461C44.7359 84.3575 44.6741 84.4337 44.5087 84.4337Z" fill="white"/>
</g>
<circle cx="63.9375" cy="51.5475" r="18.4225" fill="#CA1517"/>
<path fill-rule="evenodd" clip-rule="evenodd" d="M82.3601 51.5475C82.3601 61.722 74.1121 69.9701 63.9375 69.9701C53.7629 69.9701 45.515 61.722 45.515 51.5475C45.515 41.3731 53.7629 33.125 63.9375 33.125C74.1121 33.125 82.3601 41.3731 82.3601 51.5475ZM65.6716 58.3397L65.9333 39.0798H62.3744L62.6361 58.3397H65.6716ZM62.4922 65.3921C62.9545 65.8544 63.5084 66.0855 64.1539 66.0855C64.59 66.0855 64.9825 65.9808 65.3314 65.7715C65.6891 65.5534 65.9726 65.2656 66.1819 64.9079C66.4 64.5503 66.509 64.1578 66.509 63.7304C66.509 63.0849 66.2779 62.531 65.8156 62.0687C65.3533 61.6064 64.7994 61.3752 64.1539 61.3752C63.5084 61.3752 62.9545 61.6064 62.4922 62.0687C62.0299 62.531 61.7987 63.0849 61.7987 63.7304C61.7987 64.3758 62.0299 64.9297 62.4922 65.3921Z" fill="white"/>
</g>
<defs>
<clipPath id="clip0_64_167">
<rect width="128" height="128" fill="white"/>
</clipPath>
<clipPath id="clip1_64_167">
<rect width="58.375" height="25.4142" fill="white" transform="translate(34.75 69.4152)"/>
</clipPath>
</defs>
</svg>
