<svg width="96" height="96" viewBox="0 0 96 96" fill="none" xmlns="http://www.w3.org/2000/svg">
<g clip-path="url(#clip0_64_219)">
<path d="M0 0H96V96H0V0Z" fill="#CA1517"/>
<path d="M34.9046 54.5818C34.0543 54.6403 33.1574 54.5563 32.3836 54.9742C31.7034 55.0161 31.019 54.9911 30.3472 55.0998C29.9093 55.4049 29.9175 55.9861 29.7432 56.4334C30.4191 56.4209 31.0954 56.3998 31.7671 56.3747L31.5075 56.8847L32.0604 56.6465L32.0556 57.1982L32.5999 57.2362L32.3788 57.9379L32.821 57.9715C32.4511 60.417 33.939 63.0591 36.5961 63.335C37.0213 65.2621 36.8682 67.3726 35.614 68.982C35.2867 69.0489 34.6406 69.1869 34.3175 69.2538C34.4322 69.4168 34.666 69.7349 34.7808 69.8937C35.3292 69.8728 35.8777 69.8435 36.4261 69.8184C37.0255 67.4565 38.1647 65.2788 39.117 63.0465C40.4987 64.798 41.4258 66.9885 41.1155 69.2458C40.7371 69.4883 40.3625 69.739 39.9926 69.9898C41.0342 70.7757 42.0591 70.0438 43.0242 69.5213C43.6661 67.9413 44.8266 66.591 45.1496 64.8897C45.4132 63.9282 45.8597 63.0295 46.3572 62.1642C46.3232 63.4559 47.2539 64.5008 47.2795 65.7757C47.3475 67.2095 48.1765 69.1157 46.544 69.9978C47.1902 70.1942 47.8576 70.2653 48.5294 70.1441C48.3125 69.2537 48.1429 68.3425 48.1768 67.4229C48.3087 65.6421 47.9598 63.811 48.6825 62.1096C49.2947 62.3354 49.9111 62.5657 50.5446 62.7287C50.1492 62.2396 49.6519 61.8465 49.1502 61.4661C49.1163 60.6677 49.2822 59.8023 48.8612 59.0749C48.3596 58.2054 47.5559 57.5411 47.135 56.6256C46.8757 56.0696 46.5145 55.4595 45.8173 55.426C44.7246 55.0916 44.2994 56.3998 43.7254 57.0101C43.399 56.397 43.1382 55.7511 42.9476 55.0831C42.1696 54.9786 41.3196 54.7692 40.5799 55.1413C39.4915 56.4539 38.2117 57.5914 37.0893 58.8747C36.5707 58.8699 36.0518 58.8536 35.5331 58.841C35.2737 57.4282 36.0307 55.7479 34.9041 54.5817L34.9046 54.5818ZM43.6705 63.381C43.6109 65.3791 43.7729 67.8287 41.8981 69.1412C41.6303 67.2894 41.9449 65.4163 41.9958 63.5561C42.5527 63.506 43.1135 63.4437 43.6704 63.381H43.6705Z" fill="#CA1517"/>
<g clip-path="url(#clip1_64_219)">
<path d="M76.9375 53.3965H20V78.1849H76.9375V53.3965Z" fill="#CA1517"/>
<path d="M65.6342 67.3804H66.225V68.3108H65.6193C65.4271 68.3108 65.3821 68.2075 65.3821 68.0001V67.675C65.3817 67.4829 65.4271 67.3804 65.6342 67.3804ZM68.6325 65.0578C68.6325 63.8291 68.1159 62.9722 66.6083 62.9722H63.3291V65.2197C63.5061 65.0863 63.8312 65.0421 64.1126 65.0421H66.0031C66.1949 65.0421 66.2246 65.1024 66.2246 65.309V65.6498H64.9835C63.492 65.6498 62.9746 66.5062 62.9746 67.7192V68.2522C62.9746 69.5085 63.5056 70.3674 64.9835 70.3674H68.6325V65.0578ZM60.5919 70.3674L62.4985 62.9722H59.8852L59.2349 67.7341L58.5546 62.9722H55.8232L57.7133 70.3674H60.5919ZM52.0789 67.3804H52.6698V68.3108H52.0645C51.8718 68.3108 51.8285 68.2075 51.8285 68.0001V67.675C51.8285 67.4829 51.8718 67.3804 52.0789 67.3804ZM55.0772 65.0578C55.0772 63.8291 54.5603 62.9722 53.0551 62.9722H49.7755V65.2197C49.9512 65.0863 50.2776 65.0421 50.5573 65.0421H52.449C52.6405 65.0421 52.6702 65.1024 52.6702 65.309V65.6498H51.4291C49.9376 65.6498 49.421 66.5062 49.421 67.7192V68.2522C49.421 69.5085 49.9512 70.3674 51.4291 70.3674H55.0777L55.0772 65.0578ZM45.5848 70.3674H47.9927V60.0142H45.5848V70.3674ZM40.6688 62.9722V60.0142H38.2613V70.3679H40.6688V65.0863H41.3041C41.4811 65.0863 41.5096 65.1615 41.5096 65.368V70.3679H43.9187V65.0863C43.9187 63.8448 43.4306 62.9722 41.8946 62.9722H40.6688ZM33.9782 62.4401H36.3852V60.0142H33.9782V62.4401ZM33.9782 70.3674H36.3852V62.9727H33.9782V70.3674ZM29.5185 68.0452H28.5873C28.4548 68.0452 28.3075 68.0303 28.1594 67.9708V70.3674H30.2719C31.7638 70.3674 32.2659 69.5085 32.2659 68.2666V60.0142H29.7401V67.7647C29.7401 67.9708 29.6798 68.0452 29.5185 68.0452Z" fill="white"/>
</g>
<circle cx="48.4687" cy="35.9689" r="17.9689" fill="#CA1517"/>
<path fill-rule="evenodd" clip-rule="evenodd" d="M66.4376 35.9689C66.4376 45.8928 58.3928 53.9377 48.4687 53.9377C38.5447 53.9377 30.4999 45.8928 30.4999 35.9689C30.4999 26.045 38.5447 18 48.4687 18C58.3928 18 66.4376 26.045 66.4376 35.9689ZM50.1601 42.5938L50.4154 23.8081H46.9441L47.1994 42.5938H50.1601ZM47.059 49.4725C47.5099 49.9234 48.0502 50.1488 48.6797 50.1488C49.1051 50.1488 49.488 50.0468 49.8283 49.8426C50.1772 49.6299 50.4537 49.3491 50.6579 49.0003C50.8706 48.6514 50.9769 48.2686 50.9769 47.8517C50.9769 47.2221 50.7514 46.6818 50.3005 46.2309C49.8496 45.78 49.3093 45.5545 48.6797 45.5545C48.0502 45.5545 47.5099 45.78 47.059 46.2309C46.608 46.6818 46.3826 47.2221 46.3826 47.8517C46.3826 48.4813 46.608 49.0215 47.059 49.4725Z" fill="white"/>
</g>
<defs>
<clipPath id="clip0_64_219">
<rect width="96" height="96" fill="white"/>
</clipPath>
<clipPath id="clip1_64_219">
<rect width="56.9375" height="24.7884" fill="white" transform="translate(20 53.3965)"/>
</clipPath>
</defs>
</svg>
