<svg width="48" height="48" viewBox="0 0 48 48" fill="none" xmlns="http://www.w3.org/2000/svg">
<g clip-path="url(#clip0_64_193)">
<path d="M0 0H48V48H0V0Z" fill="#CA1517"/>
<path d="M17.4523 27.2908C17.0271 27.3201 16.5787 27.2781 16.1918 27.487C15.8517 27.508 15.5095 27.4955 15.1736 27.5498C14.9547 27.7024 14.9587 27.993 14.8716 28.2166C15.2096 28.2104 15.5477 28.1998 15.8836 28.1873L15.7537 28.4423L16.0302 28.3232L16.0278 28.5991L16.3 28.618L16.1894 28.9689L16.4105 28.9857C16.2255 30.2084 16.9695 31.5295 18.2981 31.6674C18.5106 32.631 18.4341 33.6862 17.807 34.4909C17.6433 34.5244 17.3203 34.5934 17.1587 34.6269C17.2161 34.7084 17.333 34.8674 17.3904 34.9468C17.6646 34.9364 17.9388 34.9217 18.2131 34.9091C18.5128 33.7282 19.0824 32.6393 19.5585 31.5232C20.2494 32.399 20.7129 33.4942 20.5577 34.6228C20.3685 34.7441 20.1812 34.8694 19.9963 34.9948C20.5171 35.3878 21.0296 35.0218 21.5121 34.7606C21.8331 33.9706 22.4133 33.2955 22.5748 32.4448C22.7066 31.9641 22.9299 31.5147 23.1786 31.082C23.1616 31.7279 23.627 32.2503 23.6397 32.8878C23.6737 33.6047 24.0883 34.5578 23.272 34.9988C23.5951 35.097 23.9288 35.1326 24.2647 35.072C24.1562 34.6268 24.0714 34.1712 24.0884 33.7114C24.1543 32.821 23.9799 31.9054 24.3413 31.0548C24.6474 31.1676 24.9556 31.2828 25.2723 31.3643C25.0746 31.1198 24.8259 30.9232 24.5751 30.733C24.5581 30.3338 24.6411 29.9011 24.4306 29.5374C24.1798 29.1027 23.7779 28.7705 23.5675 28.3127C23.4378 28.0347 23.2572 27.7297 22.9086 27.713C22.3623 27.5457 22.1497 28.1998 21.8627 28.505C21.6995 28.1984 21.5691 27.8755 21.4738 27.5415C21.0848 27.4893 20.6598 27.3846 20.2899 27.5706C19.7458 28.2269 19.1059 28.7956 18.5447 29.4373C18.2853 29.4349 18.0259 29.4267 17.7665 29.4205C17.6369 28.714 18.0153 27.8739 17.452 27.2908L17.4523 27.2908ZM21.8352 31.6904C21.8055 32.6895 21.8864 33.9143 20.9491 34.5705C20.8151 33.6446 20.9724 32.7081 20.9979 31.778C21.2764 31.7529 21.5567 31.7218 21.8352 31.6904H21.8352Z" fill="#CA1517"/>
<g clip-path="url(#clip1_64_193)">
<path d="M37.9688 26.7657H11V38.5069H37.9688V26.7657Z" fill="#CA1517"/>
<path d="M32.6149 33.3893H32.8947V33.83H32.6078C32.5168 33.83 32.4955 33.7811 32.4955 33.6829V33.5289C32.4953 33.4379 32.5168 33.3893 32.6149 33.3893ZM34.035 32.2892C34.035 31.7072 33.7904 31.3014 33.0763 31.3014H31.523V32.3659C31.6069 32.3027 31.7609 32.2818 31.8941 32.2818H32.7896C32.8805 32.2818 32.8945 32.3103 32.8945 32.4082V32.5696H32.3067C31.6002 32.5696 31.3552 32.9753 31.3552 33.5498V33.8022C31.3552 34.3973 31.6067 34.8042 32.3067 34.8042H34.035V32.2892ZM30.2266 34.8042L31.1296 31.3014H29.8918L29.5838 33.5569L29.2616 31.3014H27.9678L28.8631 34.8042H30.2266ZM26.1944 33.3893H26.4742V33.83H26.1875C26.0963 33.83 26.0757 33.7811 26.0757 33.6829V33.5289C26.0757 33.4379 26.0963 33.3893 26.1944 33.3893ZM27.6145 32.2892C27.6145 31.7072 27.3696 31.3014 26.6567 31.3014H25.1033V32.3659C25.1865 32.3027 25.3411 32.2818 25.4736 32.2818H26.3697C26.4603 32.2818 26.4744 32.3103 26.4744 32.4082V32.5696H25.8866C25.1801 32.5696 24.9354 32.9753 24.9354 33.5498V33.8022C24.9354 34.3973 25.1865 34.8042 25.8866 34.8042H27.6147L27.6145 32.2892ZM23.1184 34.8042H24.2589V29.9003H23.1184V34.8042ZM20.7899 31.3014V29.9003H19.6495V34.8043H20.7899V32.3027H21.0908C21.1747 32.3027 21.1881 32.3383 21.1881 32.4362V34.8043H22.3292V32.3027C22.3292 31.7147 22.098 31.3014 21.3705 31.3014H20.7899ZM17.6208 31.0493H18.7609V29.9003H17.6208V31.0493ZM17.6208 34.8042H18.7609V31.3016H17.6208V34.8042ZM15.5085 33.7042H15.0674C15.0047 33.7042 14.9349 33.6972 14.8647 33.669V34.8042H15.8653C16.572 34.8042 16.8098 34.3973 16.8098 33.8091V29.9003H15.6134V33.5713C15.6134 33.669 15.5849 33.7042 15.5085 33.7042Z" fill="white"/>
</g>
<circle cx="24.4843" cy="18.5111" r="8.51105" fill="#CA1517"/>
<path fill-rule="evenodd" clip-rule="evenodd" d="M32.9954 18.5111C32.9954 23.2116 29.1849 27.0221 24.4843 27.0221C19.7837 27.0221 15.9733 23.2116 15.9733 18.5111C15.9733 13.8105 19.7837 10 24.4843 10C29.1849 10 32.9954 13.8105 32.9954 18.5111ZM25.2855 21.649L25.4063 12.751H23.7622L23.8831 21.649H25.2855ZM23.8166 24.9071C24.0302 25.1207 24.286 25.2275 24.5843 25.2275C24.7858 25.2275 24.9671 25.1791 25.1283 25.0824C25.2935 24.9817 25.4245 24.8487 25.5212 24.6834C25.6219 24.5182 25.6723 24.3369 25.6723 24.1394C25.6723 23.8412 25.5655 23.5853 25.3519 23.3717C25.1384 23.1581 24.8825 23.0514 24.5843 23.0514C24.286 23.0514 24.0302 23.1581 23.8166 23.3717C23.603 23.5853 23.4962 23.8412 23.4962 24.1394C23.4962 24.4376 23.603 24.6935 23.8166 24.9071Z" fill="white"/>
</g>
<defs>
<clipPath id="clip0_64_193">
<rect width="48" height="48" fill="white"/>
</clipPath>
<clipPath id="clip1_64_193">
<rect width="26.9688" height="11.7411" fill="white" transform="translate(11 26.7657)"/>
</clipPath>
</defs>
</svg>
