<svg width="72" height="72" viewBox="0 0 72 72" fill="none" xmlns="http://www.w3.org/2000/svg">
<g clip-path="url(#clip0_64_206)">
<path d="M0 0H72V72H0V0Z" fill="#CA1517"/>
<path d="M26.1784 40.9364C25.5407 40.9802 24.868 40.9172 24.2877 41.2307C23.7776 41.2621 23.2642 41.2433 22.7604 41.3249C22.432 41.5537 22.4381 41.9896 22.3074 42.3251C22.8144 42.3157 23.3216 42.2999 23.8253 42.281L23.6306 42.6636L24.0453 42.4849L24.0417 42.8987L24.4499 42.9272L24.2841 43.4535L24.6157 43.4787C24.3383 45.3128 25.4543 47.2943 27.4471 47.5013C27.7659 48.9466 27.6511 50.5295 26.7105 51.7365C26.465 51.7867 25.9804 51.8902 25.7381 51.9404C25.8241 52.0627 25.9995 52.3012 26.0856 52.4203C26.4969 52.4047 26.9082 52.3826 27.3196 52.3638C27.7691 50.5924 28.6235 48.9591 29.3377 47.2849C30.374 48.5986 31.0693 50.2414 30.8366 51.9344C30.5528 52.1162 30.2719 52.3043 29.9945 52.4924C30.7757 53.0818 31.5444 52.5329 32.2681 52.141C32.7496 50.956 33.6199 49.9433 33.8622 48.6673C34.0599 47.9462 34.3948 47.2721 34.7679 46.6232C34.7424 47.5919 35.4405 48.3756 35.4596 49.3318C35.5106 50.4072 36.1324 51.8368 34.908 52.4984C35.3927 52.6457 35.8932 52.699 36.397 52.6081C36.2344 51.9403 36.1071 51.2569 36.1326 50.5672C36.2315 49.2316 35.9698 47.8583 36.5119 46.5823C36.971 46.7516 37.4333 46.9243 37.9084 47.0466C37.6119 46.6798 37.2389 46.3849 36.8626 46.0996C36.8372 45.5008 36.9616 44.8517 36.6459 44.3062C36.2697 43.6541 35.6669 43.1558 35.3513 42.4692C35.1567 42.0522 34.8858 41.5946 34.3629 41.5696C33.5435 41.3187 33.2245 42.2999 32.7941 42.7576C32.5492 42.2978 32.3537 41.8133 32.2107 41.3124C31.6272 41.234 30.9897 41.077 30.4349 41.356C29.6186 42.3404 28.6588 43.1936 27.817 44.1561C27.428 44.1525 27.0388 44.1402 26.6498 44.1308C26.4553 43.0712 27.023 41.811 26.1781 40.9363L26.1784 40.9364ZM32.7528 47.5358C32.7082 49.0344 32.8297 50.8715 31.4236 51.8559C31.2227 50.4671 31.4586 49.0623 31.4969 47.6671C31.9145 47.6295 32.3351 47.5828 32.7528 47.5358H32.7528Z" fill="#CA1517"/>
<g clip-path="url(#clip1_64_206)">
<path d="M52.3828 39.046H19.5469V53.3415H52.3828V39.046Z" fill="#CA1517"/>
<path d="M45.8642 47.1106H46.2049V47.6471H45.8556C45.7448 47.6471 45.7188 47.5876 45.7188 47.468V47.2804C45.7186 47.1697 45.7447 47.1106 45.8642 47.1106ZM47.5933 45.7711C47.5933 45.0625 47.2954 44.5684 46.426 44.5684H44.5348V45.8645C44.6369 45.7875 44.8244 45.762 44.9867 45.762H46.0769C46.1876 45.762 46.2047 45.7968 46.2047 45.9159V46.1125H45.489C44.6288 46.1125 44.3304 46.6064 44.3304 47.3059V47.6133C44.3304 48.3378 44.6367 48.8332 45.489 48.8332H47.5933V45.7711ZM42.9563 48.8332L44.0558 44.5684H42.5487L42.1737 47.3145L41.7814 44.5684H40.2062L41.2962 48.8332H42.9563ZM38.0469 47.1106H38.3876V47.6471H38.0385C37.9274 47.6471 37.9024 47.5876 37.9024 47.468V47.2804C37.9024 47.1697 37.9274 47.1106 38.0469 47.1106ZM39.776 45.7711C39.776 45.0625 39.4778 44.5684 38.6098 44.5684H36.7184V45.8645C36.8198 45.7875 37.008 45.762 37.1693 45.762H38.2603C38.3707 45.762 38.3878 45.7968 38.3878 45.9159V46.1125H37.6721C36.8119 46.1125 36.514 46.6064 36.514 47.3059V47.6133C36.514 48.3378 36.8198 48.8332 37.6721 48.8332H39.7762L39.776 45.7711ZM34.3017 48.8332H35.6903V42.8624H34.3017V48.8332ZM31.4666 44.5684V42.8624H30.0782V48.8334H31.4666V45.7875H31.833C31.9351 45.7875 31.9515 45.8309 31.9515 45.95V48.8334H33.3409V45.7875C33.3409 45.0716 33.0594 44.5684 32.1735 44.5684H31.4666ZM27.6081 44.2615H28.9963V42.8624H27.6081V44.2615ZM27.6081 48.8332H28.9963V44.5686H27.6081V48.8332ZM25.0362 47.4939H24.4992C24.4228 47.4939 24.3379 47.4854 24.2524 47.451V48.8332H25.4707C26.3311 48.8332 26.6207 48.3378 26.6207 47.6216V42.8624H25.164V47.3322C25.164 47.451 25.1293 47.4939 25.0362 47.4939Z" fill="white"/>
</g>
<circle cx="35.9648" cy="28.9955" r="10.3627" fill="#CA1517"/>
<path fill-rule="evenodd" clip-rule="evenodd" d="M46.3275 28.9955C46.3275 34.7186 41.6881 39.3582 35.9648 39.3582C30.2416 39.3582 25.6022 34.7186 25.6022 28.9955C25.6022 23.2724 30.2416 18.6328 35.9648 18.6328C41.6881 18.6328 46.3275 23.2724 46.3275 28.9955ZM36.9403 32.8161L37.0875 21.9824H35.0856L35.2328 32.8161H36.9403ZM35.1518 36.783C35.4119 37.0431 35.7234 37.1731 36.0865 37.1731C36.3319 37.1731 36.5527 37.1142 36.7489 36.9965C36.9501 36.8738 37.1095 36.7119 37.2273 36.5107C37.35 36.3095 37.4113 36.0887 37.4113 35.8483C37.4113 35.4852 37.2813 35.1737 37.0212 34.9136C36.7612 34.6536 36.4496 34.5236 36.0865 34.5236C35.7234 34.5236 35.4119 34.6536 35.1518 34.9136C34.8918 35.1737 34.7618 35.4852 34.7618 35.8483C34.7618 36.2114 34.8918 36.523 35.1518 36.783Z" fill="white"/>
</g>
<defs>
<clipPath id="clip0_64_206">
<rect width="72" height="72" fill="white"/>
</clipPath>
<clipPath id="clip1_64_206">
<rect width="32.8359" height="14.2955" fill="white" transform="translate(19.5469 39.046)"/>
</clipPath>
</defs>
</svg>
