<svg width="256" height="256" viewBox="0 0 256 256" fill="none" xmlns="http://www.w3.org/2000/svg">
<g clip-path="url(#clip0_64_245)">
<path d="M0 0H256V256H0V0Z" fill="#CA1517"/>
<path d="M93.0788 145.551C90.8114 145.707 88.4196 145.483 86.3563 146.598C84.5425 146.71 82.7172 146.643 80.9259 146.933C79.7582 147.746 79.7798 149.296 79.3151 150.489C81.1177 150.456 82.9211 150.4 84.7123 150.332L84.0198 151.693L85.4944 151.057L85.4816 152.529L86.9331 152.63L86.3434 154.501L87.5226 154.591C86.5362 161.112 90.5041 168.158 97.5896 168.893C98.7233 174.032 98.3151 179.66 94.9707 183.952C94.0978 184.13 92.3748 184.498 91.5132 184.677C91.8191 185.112 92.4426 185.96 92.7487 186.383C94.2112 186.328 95.6737 186.249 97.1362 186.182C98.7347 179.884 101.773 174.077 104.312 168.124C107.997 172.795 110.469 178.636 109.641 184.656C108.632 185.302 107.633 185.971 106.647 186.64C109.425 188.735 112.158 186.784 114.731 185.39C116.443 181.177 119.538 177.576 120.399 173.039C121.102 170.475 122.293 168.079 123.619 165.771C123.528 169.216 126.01 172.002 126.079 175.402C126.26 179.225 128.471 184.309 124.117 186.661C125.841 187.185 127.62 187.374 129.412 187.051C128.833 184.677 128.381 182.247 128.472 179.794C128.823 175.046 127.893 170.163 129.82 165.626C131.453 166.228 133.096 166.842 134.786 167.277C133.731 165.972 132.405 164.924 131.067 163.91C130.977 161.781 131.419 159.473 130.297 157.533C128.959 155.215 126.816 153.443 125.693 151.002C125.002 149.519 124.039 147.892 122.179 147.803C119.266 146.911 118.132 150.4 116.601 152.027C115.73 150.392 115.035 148.67 114.527 146.888C112.452 146.61 110.186 146.051 108.213 147.043C105.311 150.544 101.898 153.577 98.9048 156.999C97.5218 156.987 96.138 156.943 94.7548 156.909C94.0632 153.142 96.0818 148.661 93.0775 145.551L93.0788 145.551ZM116.455 169.016C116.296 174.344 116.728 180.876 111.728 184.377C111.014 179.438 111.853 174.444 111.989 169.483C113.474 169.349 114.969 169.183 116.454 169.016H116.455Z" fill="#CA1517"/>
<g clip-path="url(#clip1_64_245)">
<path d="M186.25 138.83H69.5V189.659H186.25V138.83Z" fill="#CA1517"/>
<path d="M163.073 167.504H164.284V169.412H163.042C162.648 169.412 162.556 169.2 162.556 168.775V168.108C162.555 167.714 162.648 167.504 163.073 167.504ZM169.221 162.742C169.221 160.222 168.161 158.465 165.07 158.465H158.346V163.074C158.709 162.8 159.376 162.709 159.953 162.709H163.829C164.222 162.709 164.283 162.833 164.283 163.257V163.956H161.738C158.68 163.956 157.619 165.712 157.619 168.199V169.292C157.619 171.868 158.708 173.629 161.738 173.629H169.221V162.742ZM152.733 173.629L156.643 158.465H151.284L149.951 168.229L148.556 158.465H142.955L146.831 173.629H152.733ZM135.278 167.504H136.489V169.412H135.248C134.853 169.412 134.764 169.2 134.764 168.775V168.108C134.764 167.714 134.853 167.504 135.278 167.504ZM141.426 162.742C141.426 160.222 140.366 158.465 137.279 158.465H130.554V163.074C130.915 162.8 131.584 162.709 132.158 162.709H136.037C136.429 162.709 136.49 162.833 136.49 163.257V163.956H133.945C130.887 163.956 129.828 165.712 129.828 168.199V169.292C129.828 171.868 130.915 173.629 133.945 173.629H141.427L141.426 162.742ZM121.961 173.629H126.899V152.4H121.961V173.629ZM111.881 158.465V152.4H106.945V173.63H111.881V162.8H113.184C113.547 162.8 113.605 162.954 113.605 163.378V173.63H118.545V162.8C118.545 160.254 117.544 158.465 114.395 158.465H111.881ZM98.1622 157.374H103.098V152.4H98.1622V157.374ZM98.1622 173.629H103.098V158.466H98.1622V173.629ZM89.0176 168.867H87.1082C86.8366 168.867 86.5346 168.837 86.2308 168.715V173.629H90.5624C93.6216 173.629 94.6512 171.868 94.6512 169.321V152.4H89.4719V168.292C89.4719 168.715 89.3484 168.867 89.0176 168.867Z" fill="white"/>
</g>
<circle cx="127.875" cy="103.095" r="36.8451" fill="#CA1517"/>
<path fill-rule="evenodd" clip-rule="evenodd" d="M164.72 103.095C164.72 123.444 148.224 139.94 127.875 139.94C107.526 139.94 91.0299 123.444 91.0299 103.095C91.0299 82.7461 107.526 66.25 127.875 66.25C148.224 66.25 164.72 82.7461 164.72 103.095ZM131.343 116.679L131.867 78.1595H124.749L125.272 116.679H131.343ZM124.984 130.784C125.909 131.709 127.017 132.171 128.308 132.171C129.18 132.171 129.965 131.962 130.663 131.543C131.378 131.107 131.945 130.531 132.364 129.816C132.8 129.101 133.018 128.316 133.018 127.461C133.018 126.17 132.556 125.062 131.631 124.137C130.706 123.213 129.599 122.75 128.308 122.75C127.017 122.75 125.909 123.213 124.984 124.137C124.06 125.062 123.597 126.17 123.597 127.461C123.597 128.752 124.06 129.859 124.984 130.784Z" fill="white"/>
</g>
<defs>
<clipPath id="clip0_64_245">
<rect width="256" height="256" fill="white"/>
</clipPath>
<clipPath id="clip1_64_245">
<rect width="116.75" height="50.8284" fill="white" transform="translate(69.5 138.83)"/>
</clipPath>
</defs>
</svg>
