<svg width="1024" height="1024" viewBox="0 0 1024 1024" fill="none" xmlns="http://www.w3.org/2000/svg">
<g clip-path="url(#clip0_64_154)">
<path d="M0 0H1024V1024H0V0Z" fill="#CA1517"/>
<path d="M372.315 582.205C363.246 582.83 353.678 581.934 345.425 586.391C338.17 586.838 330.869 586.571 323.704 587.731C319.033 590.986 319.119 597.185 317.26 601.956C324.471 601.823 331.684 601.598 338.849 601.33L336.079 606.77L341.978 604.23L341.926 610.114L347.732 610.519L345.374 618.004L350.09 618.363C346.145 644.448 362.016 672.63 390.359 675.573C394.893 696.128 393.261 718.641 379.883 735.807C376.391 736.522 369.499 737.994 366.053 738.707C367.277 740.446 369.771 743.839 370.995 745.532C376.845 745.31 382.695 744.997 388.545 744.729C394.939 719.536 407.09 696.307 417.248 672.496C431.986 691.179 441.875 714.544 438.565 738.622C434.529 741.208 430.533 743.883 426.588 746.558C437.698 754.94 448.631 747.134 458.925 741.561C465.772 724.707 478.15 710.304 481.596 692.156C484.408 681.901 489.17 672.314 494.476 663.084C494.114 676.862 504.042 688.008 504.314 701.607C505.039 716.901 513.883 737.234 496.469 746.643C503.362 748.738 510.481 749.497 517.646 748.203C515.333 738.706 513.524 728.987 513.886 719.177C515.292 700.182 511.571 680.651 519.28 662.503C525.81 664.911 532.385 667.367 539.142 669.106C534.925 663.889 529.62 659.696 524.269 655.638C523.907 647.122 525.677 637.891 521.186 630.132C515.836 620.858 507.262 613.771 502.773 604.006C500.007 598.076 496.154 591.568 488.717 591.211C477.063 587.644 472.526 601.598 466.404 608.108C462.922 601.568 460.141 594.678 458.107 587.553C449.809 586.439 440.742 584.205 432.852 588.174C421.243 602.174 407.591 614.308 395.619 627.997C390.087 627.946 384.552 627.772 379.019 627.638C376.253 612.567 384.327 594.644 372.31 582.204L372.315 582.205ZM465.818 676.064C465.183 697.377 466.911 723.506 446.913 737.506C444.056 717.753 447.412 697.774 447.955 677.932C453.896 677.397 459.877 676.732 465.818 676.064H465.818Z" fill="#CA1517"/>
<g clip-path="url(#clip1_64_154)">
<path d="M745 555.321H278V758.635H745V555.321Z" fill="#CA1517"/>
<path d="M652.29 670.017H657.136V677.648H652.168C650.592 677.648 650.223 676.801 650.223 675.1V672.433C650.219 670.858 650.591 670.017 652.29 670.017ZM676.882 650.967C676.882 640.889 672.645 633.861 660.28 633.861H633.384V652.295C634.835 651.201 637.502 650.838 639.81 650.838H655.316C656.889 650.838 657.133 651.333 657.133 653.027V655.823H646.954C634.72 655.823 630.477 662.847 630.477 672.796V677.167C630.477 687.472 634.832 694.517 646.954 694.517H676.882V650.967ZM610.934 694.517L626.571 633.861H605.137L599.804 672.918L594.223 633.861H571.821L587.323 694.517H610.934ZM541.11 670.017H545.956V677.648H540.992C539.412 677.648 539.056 676.801 539.056 675.1V672.433C539.056 670.858 539.412 670.017 541.11 670.017ZM565.702 650.967C565.702 640.889 561.462 633.861 549.117 633.861H522.217V652.295C523.659 651.201 526.336 650.838 528.63 650.838H544.146C545.716 650.838 545.96 651.333 545.96 653.027V655.823H535.781C523.547 655.823 519.31 662.847 519.31 672.796V677.167C519.31 687.472 523.659 694.517 535.781 694.517H565.706L565.702 650.967ZM487.845 694.517H507.595V609.599H487.845V694.517ZM447.524 633.861V609.599H427.778V694.52H447.524V651.201H452.736C454.188 651.201 454.421 651.817 454.421 653.512V694.52H474.181V651.201C474.181 641.018 470.177 633.861 457.578 633.861H447.524ZM392.648 629.497H412.391V609.599H392.648V629.497ZM392.648 694.517H412.391V633.865H392.648V694.517ZM356.07 675.47H348.432C347.346 675.47 346.138 675.348 344.923 674.86V694.517H362.25C374.486 694.517 378.605 687.472 378.605 677.286V609.599H357.887V673.169C357.887 674.86 357.393 675.47 356.07 675.47Z" fill="white"/>
</g>
<circle cx="511.5" cy="412.38" r="147.38" fill="#CA1517"/>
<path fill-rule="evenodd" clip-rule="evenodd" d="M658.88 412.38C658.88 493.776 592.897 559.76 511.5 559.76C430.103 559.76 364.12 493.776 364.12 412.38C364.12 330.985 430.103 265 511.5 265C592.897 265 658.88 330.985 658.88 412.38ZM525.373 466.717L527.466 312.638H498.995L501.088 466.717H525.373ZM499.937 523.136C503.636 526.835 508.067 528.684 513.231 528.684C516.72 528.684 519.86 527.847 522.651 526.172C525.512 524.427 527.78 522.125 529.455 519.263C531.2 516.402 532.072 513.262 532.072 509.843C532.072 504.679 530.223 500.248 526.524 496.549C522.826 492.851 518.395 491.002 513.231 491.002C508.067 491.002 503.636 492.851 499.937 496.549C496.239 500.248 494.389 504.679 494.389 509.843C494.389 515.007 496.239 519.438 499.937 523.136Z" fill="white"/>
</g>
<defs>
<clipPath id="clip0_64_154">
<rect width="1024" height="1024" fill="white"/>
</clipPath>
<clipPath id="clip1_64_154">
<rect width="467" height="203.314" fill="white" transform="translate(278 555.321)"/>
</clipPath>
</defs>
</svg>
