<svg width="150" height="150" viewBox="0 0 150 150" fill="none" xmlns="http://www.w3.org/2000/svg">
<g clip-path="url(#clip0_64_180)">
<path d="M0 0H150V150H0V0Z" fill="#CA1517"/>
<path d="M54.5383 85.284C53.2098 85.3754 51.8083 85.2441 50.5994 85.8972C49.5366 85.9626 48.4671 85.9235 47.4175 86.0934C46.7333 86.5701 46.746 87.4783 46.4736 88.1772C47.5299 88.1576 48.5865 88.1247 49.6361 88.0854L49.2303 88.8823L50.0943 88.5102L50.0868 89.3722L50.9373 89.4315L50.5918 90.528L51.2827 90.5805C50.7048 94.4015 53.0297 98.5298 57.1814 98.9609C57.8457 101.972 57.6065 105.27 55.6469 107.784C55.1354 107.889 54.1258 108.105 53.621 108.209C53.8002 108.464 54.1656 108.961 54.3449 109.209C55.2018 109.176 56.0588 109.13 56.9157 109.091C57.8523 105.401 59.6323 101.998 61.1202 98.5101C63.2792 101.247 64.7277 104.67 64.2429 108.197C63.6516 108.575 63.0663 108.967 62.4884 109.359C64.1159 110.587 65.7174 109.443 67.2252 108.627C68.2283 106.158 70.0415 104.048 70.5462 101.39C70.9581 99.8878 71.6558 98.4835 72.433 97.1315C72.3799 99.1497 73.8342 100.782 73.8741 102.774C73.9803 105.015 75.2757 107.993 72.7249 109.371C73.7346 109.678 74.7775 109.79 75.8271 109.6C75.4882 108.209 75.2232 106.785 75.2763 105.348C75.4822 102.566 74.9371 99.7047 76.0664 97.0463C77.0229 97.399 77.9861 97.7589 78.9759 98.0136C78.3581 97.2494 77.581 96.6351 76.7971 96.0408C76.7441 94.7932 77.0034 93.441 76.3456 92.3045C75.5619 90.9459 74.306 89.9079 73.6484 88.4775C73.2432 87.6087 72.6788 86.6554 71.5894 86.6031C69.8822 86.0806 69.2177 88.1247 68.3209 89.0783C67.8108 88.1203 67.4034 87.111 67.1055 86.0673C65.8899 85.9041 64.5618 85.5769 63.406 86.1582C61.7055 88.2091 59.7057 89.9865 57.952 91.9917C57.1416 91.9842 56.3308 91.9587 55.5204 91.9391C55.1151 89.7315 56.2979 87.1061 54.5376 85.2838L54.5383 85.284ZM68.235 99.0327C68.142 102.155 68.3951 105.982 65.4657 108.033C65.0472 105.14 65.5388 102.213 65.6184 99.3064C66.4886 99.2281 67.3647 99.1307 68.235 99.0327H68.235Z" fill="#CA1517"/>
<g clip-path="url(#clip1_64_180)">
<path d="M109.131 81.3459H40.7227V111.128H109.131V81.3459Z" fill="#CA1517"/>
<path d="M95.5504 98.1472H96.2602V99.265H95.5325C95.3015 99.265 95.2475 99.1409 95.2475 98.8917V98.5011C95.247 98.2703 95.3015 98.1472 95.5504 98.1472ZM99.1527 95.3566C99.1527 93.8804 98.5321 92.8509 96.7207 92.8509H92.7808V95.5512C92.9935 95.3908 93.3841 95.3377 93.7222 95.3377H95.9935C96.224 95.3377 96.2597 95.4102 96.2597 95.6584V96.0679H94.7686C92.9766 96.0679 92.355 97.0969 92.355 98.5542V99.1945C92.355 100.704 92.993 101.736 94.7686 101.736H99.1527V95.3566ZM89.4923 101.736L91.783 92.8509H88.6431L87.8619 98.5721L87.0445 92.8509H83.7628L86.0337 101.736H89.4923ZM79.2643 98.1472H79.9741V99.265H79.2469C79.0154 99.265 78.9634 99.1409 78.9634 98.8917V98.5011C78.9634 98.2703 79.0154 98.1472 79.2643 98.1472ZM82.8666 95.3566C82.8666 93.8804 82.2455 92.8509 80.4371 92.8509H76.4967V95.5512C76.7079 95.3908 77.1 95.3377 77.4361 95.3377H79.7089C79.9389 95.3377 79.9746 95.4102 79.9746 95.6584V96.0679H78.4835C76.6915 96.0679 76.0709 97.0969 76.0709 98.5542V99.1945C76.0709 100.704 76.7079 101.736 78.4835 101.736H82.8671L82.8666 95.3566ZM71.4618 101.736H74.3547V89.2969H71.4618V101.736ZM65.5554 92.8509V89.2969H62.6629V101.736H65.5554V95.3908H66.3188C66.5314 95.3908 66.5656 95.4812 66.5656 95.7294V101.736H69.4601V95.3908C69.4601 93.8992 68.8737 92.8509 67.0281 92.8509H65.5554ZM57.5169 92.2116H60.4089V89.2969H57.5169V92.2116ZM57.5169 101.736H60.4089V92.8514H57.5169V101.736ZM52.1588 98.9458H51.0399C50.8808 98.9458 50.7038 98.928 50.5259 98.8565V101.736H53.0639C54.8564 101.736 55.4597 100.704 55.4597 99.2119V89.2969H52.425V98.6088C52.425 98.8565 52.3526 98.9458 52.1588 98.9458Z" fill="white"/>
</g>
<circle cx="74.9268" cy="60.4073" r="21.5889" fill="#CA1517"/>
<path fill-rule="evenodd" clip-rule="evenodd" d="M96.5157 60.4073C96.5157 72.3305 86.8501 81.9962 74.9268 81.9962C63.0034 81.9962 53.3379 72.3305 53.3379 60.4073C53.3379 48.4841 63.0034 38.8184 74.9268 38.8184C86.8501 38.8184 96.5157 48.4841 96.5157 60.4073ZM76.9589 68.3668L77.2656 45.7966H73.095L73.4017 68.3668H76.9589ZM73.233 76.6313C73.7748 77.1731 74.4239 77.444 75.1803 77.444C75.6914 77.444 76.1514 77.3213 76.5603 77.076C76.9794 76.8204 77.3116 76.4831 77.5569 76.064C77.8125 75.6449 77.9402 75.1849 77.9402 74.684C77.9402 73.9276 77.6694 73.2785 77.1276 72.7367C76.5858 72.195 75.9367 71.9241 75.1803 71.9241C74.4239 71.9241 73.7748 72.195 73.233 72.7367C72.6912 73.2785 72.4204 73.9276 72.4204 74.684C72.4204 75.4404 72.6912 76.0895 73.233 76.6313Z" fill="white"/>
</g>
<defs>
<clipPath id="clip0_64_180">
<rect width="150" height="150" fill="white"/>
</clipPath>
<clipPath id="clip1_64_180">
<rect width="68.4082" height="29.7823" fill="white" transform="translate(40.7227 81.3459)"/>
</clipPath>
</defs>
</svg>
