<svg width="48" height="48" viewBox="0 0 48 48" fill="none" xmlns="http://www.w3.org/2000/svg">
<g clip-path="url(#clip0_64_193)">
<path d="M0 0H48V48H0V0Z" fill="#CA1517"/>
<path d="M17.4523 27.2908C17.0271 27.3201 16.5787 27.2781 16.1918 27.487C15.8517 27.508 15.5095 27.4955 15.1736 27.5498C14.9547 27.7024 14.9587 27.993 14.8716 28.2166C15.2096 28.2104 15.5477 28.1998 15.8836 28.1873L15.7537 28.4423L16.0302 28.3232L16.0278 28.5991L16.3 28.618L16.1894 28.9689L16.4105 28.9857C16.2255 30.2084 16.9695 31.5295 18.2981 31.6674C18.5106 32.631 18.4341 33.6862 17.807 34.4909C17.6433 34.5244 17.3203 34.5934 17.1587 34.6269C17.2161 34.7084 17.333 34.8674 17.3904 34.9468C17.6646 34.9364 17.9388 34.9217 18.2131 34.9091C18.5128 33.7282 19.0824 32.6393 19.5585 31.5232C20.2494 32.399 20.7129 33.4942 20.5577 34.6228C20.3685 34.7441 20.1812 34.8694 19.9963 34.9948C20.5171 35.3878 21.0296 35.0218 21.5121 34.7606C21.8331 33.9706 22.4133 33.2955 22.5748 32.4448C22.7066 31.9641 22.9299 31.5147 23.1786 31.082C23.1616 31.7279 23.627 32.2503 23.6397 32.8878C23.6737 33.6047 24.0883 34.5578 23.272 34.9988C23.5951 35.097 23.9288 35.1326 24.2647 35.072C24.1562 34.6268 24.0714 34.1712 24.0884 33.7114C24.1543 32.821 23.9799 31.9054 24.3413 31.0548C24.6474 31.1676 24.9556 31.2828 25.2723 31.3643C25.0746 31.1198 24.8259 30.9232 24.5751 30.733C24.5581 30.3338 24.6411 29.9011 24.4306 29.5374C24.1798 29.1027 23.7779 28.7705 23.5675 28.3127C23.4378 28.0347 23.2572 27.7297 22.9086 27.713C22.3623 27.5457 22.1497 28.1998 21.8627 28.505C21.6995 28.1984 21.5691 27.8755 21.4738 27.5415C21.0848 27.4893 20.6598 27.3846 20.2899 27.5706C19.7458 28.2269 19.1059 28.7956 18.5447 29.4373C18.2853 29.4349 18.0259 29.4267 17.7665 29.4205C17.6369 28.714 18.0153 27.8739 17.452 27.2908L17.4523 27.2908ZM21.8352 31.6904C21.8055 32.6895 21.8864 33.9143 20.9491 34.5705C20.8151 33.6446 20.9724 32.7081 20.9979 31.778C21.2764 31.7529 21.5567 31.7218 21.8352 31.6904H21.8352Z" fill="#CA1517"/>
<g clip-path="url(#clip1_64_193)">
<path d="M34.9219 26.0306H13.0312V35.561H34.9219V26.0306Z" fill="#CA1517"/>
<path d="M30.576 31.407H30.8032V31.7648H30.5703C30.4964 31.7648 30.4791 31.725 30.4791 31.6453V31.5203C30.479 31.4464 30.4964 31.407 30.576 31.407ZM31.7288 30.5141C31.7288 30.0417 31.5302 29.7122 30.9506 29.7122H29.6898V30.5763C29.7578 30.525 29.8828 30.508 29.991 30.508H30.7179C30.7916 30.508 30.803 30.5312 30.803 30.6106V30.7417H30.3259C29.7525 30.7417 29.5535 31.0709 29.5535 31.5373V31.7422C29.5535 32.2252 29.7577 32.5555 30.3259 32.5555H31.7288V30.5141ZM28.6375 32.5555L29.3705 29.7122H28.3657L28.1157 31.543L27.8542 29.7122H26.804L27.5307 32.5555H28.6375ZM25.3645 31.407H25.5916V31.7648H25.3589C25.2849 31.7648 25.2682 31.725 25.2682 31.6453V31.5203C25.2682 31.4464 25.2849 31.407 25.3645 31.407ZM26.5172 30.5141C26.5172 30.0417 26.3185 29.7122 25.7398 29.7122H24.4789V30.5763C24.5465 30.525 24.6719 30.508 24.7795 30.508H25.5068C25.5804 30.508 25.5918 30.5312 25.5918 30.6106V30.7417H25.1147C24.5412 30.7417 24.3426 31.0709 24.3426 31.5373V31.7422C24.3426 32.2252 24.5465 32.5555 25.1147 32.5555H26.5174L26.5172 30.5141ZM22.8677 32.5555H23.7934V28.575H22.8677V32.5555ZM20.9776 29.7122V28.575H20.0521V32.5556H20.9776V30.525H21.2219C21.29 30.525 21.3009 30.5539 21.3009 30.6333V32.5556H22.2272V30.525C22.2272 30.0477 22.0395 29.7122 21.4489 29.7122H20.9776ZM18.4053 29.5077H19.3308V28.575H18.4053V29.5077ZM18.4053 32.5555H19.3308V29.7124H18.4053V32.5555ZM16.6907 31.6626H16.3327C16.2818 31.6626 16.2252 31.6569 16.1682 31.634V32.5555H16.9804C17.554 32.5555 17.747 32.2252 17.747 31.7478V28.575H16.7759V31.5548C16.7759 31.634 16.7528 31.6626 16.6907 31.6626Z" fill="white"/>
</g>
<circle cx="23.9766" cy="19.3303" r="6.90845" fill="#CA1517"/>
<path fill-rule="evenodd" clip-rule="evenodd" d="M30.885 19.3303C30.885 23.1457 27.792 26.2388 23.9766 26.2388C20.1611 26.2388 17.0681 23.1457 17.0681 19.3303C17.0681 15.5149 20.1611 12.4219 23.9766 12.4219C27.792 12.4219 30.885 15.5149 30.885 19.3303ZM24.6268 21.8774L24.725 14.6549H23.3904L23.4885 21.8774H24.6268ZM23.4346 24.522C23.6079 24.6954 23.8156 24.7821 24.0577 24.7821C24.2212 24.7821 24.3684 24.7428 24.4993 24.6643C24.6334 24.5825 24.7397 24.4746 24.8182 24.3405C24.9 24.2064 24.9409 24.0592 24.9409 23.8989C24.9409 23.6568 24.8542 23.4491 24.6808 23.2758C24.5075 23.1024 24.2997 23.0157 24.0577 23.0157C23.8156 23.0157 23.6079 23.1024 23.4346 23.2758C23.2612 23.4491 23.1745 23.6568 23.1745 23.8989C23.1745 24.1409 23.2612 24.3487 23.4346 24.522Z" fill="white"/>
</g>
<defs>
<clipPath id="clip0_64_193">
<rect width="48" height="48" fill="white"/>
</clipPath>
<clipPath id="clip1_64_193">
<rect width="21.8906" height="9.53033" fill="white" transform="translate(13.0312 26.0306)"/>
</clipPath>
</defs>
</svg>
