<svg width="512" height="512" viewBox="0 0 512 512" fill="none" xmlns="http://www.w3.org/2000/svg">
<g clip-path="url(#clip0_64_271)">
<path d="M0 0H512V512H0V0Z" fill="#CA1517"/>
<path d="M186.158 291.103C181.623 291.415 176.839 290.967 172.713 293.196C169.085 293.419 165.434 293.286 161.852 293.866C159.516 295.493 159.56 298.593 158.63 300.978C162.235 300.911 165.842 300.799 169.425 300.665L168.04 303.385L170.989 302.115L170.963 305.057L173.866 305.26L172.687 309.002L175.045 309.182C173.072 322.224 181.008 336.315 195.179 337.787C197.447 348.064 196.63 359.32 189.941 367.904C188.196 368.261 184.75 368.997 183.026 369.354C183.638 370.223 184.885 371.919 185.497 372.766C188.422 372.655 191.347 372.499 194.272 372.365C197.469 359.768 203.545 348.153 208.624 336.248C215.993 345.59 220.937 357.272 219.282 369.311C217.264 370.604 215.267 371.941 213.294 373.279C218.849 377.47 224.315 373.567 229.462 370.781C232.886 362.354 239.075 355.152 240.798 346.078C242.204 340.951 244.585 336.157 247.238 331.542C247.057 338.431 252.021 344.004 252.157 350.804C252.52 358.451 256.941 368.617 248.234 373.322C251.681 374.369 255.241 374.749 258.823 374.102C257.667 369.353 256.762 364.494 256.943 359.589C257.646 350.091 255.785 340.325 259.64 331.252C262.905 332.456 266.193 333.684 269.571 334.553C267.462 331.945 264.81 329.848 262.134 327.819C261.953 323.561 262.838 318.946 260.593 315.066C257.918 310.429 253.631 306.886 251.387 302.003C250.003 299.038 248.077 295.784 244.359 295.606C238.531 293.822 236.263 300.799 233.202 304.054C231.461 300.784 230.07 297.339 229.054 293.777C224.904 293.219 220.371 292.103 216.426 294.087C210.621 301.087 203.796 307.154 197.81 313.999C195.044 313.973 192.276 313.886 189.51 313.819C188.126 306.284 192.164 297.322 186.155 291.102L186.158 291.103ZM232.909 338.032C232.592 348.689 233.455 361.753 223.456 368.753C222.028 358.877 223.706 348.887 223.978 338.966C226.948 338.699 229.938 338.366 232.909 338.032H232.909Z" fill="#CA1517"/>
<g clip-path="url(#clip1_64_271)">
<path d="M408 282.203H131V402.798H408V282.203Z" fill="#CA1517"/>
<path d="M353.009 350.235H355.884V354.761H352.937C352.002 354.761 351.783 354.259 351.783 353.25V351.668C351.781 350.733 352.002 350.235 353.009 350.235ZM367.596 338.935C367.596 332.958 365.083 328.789 357.749 328.789H341.795V339.723C342.656 339.074 344.238 338.859 345.607 338.859H354.804C355.737 338.859 355.882 339.152 355.882 340.157V341.815H349.844C342.588 341.815 340.071 345.982 340.071 351.883V354.476C340.071 360.588 342.654 364.767 349.844 364.767H367.596V338.935ZM328.479 364.767L337.754 328.789H325.041L321.877 351.956L318.567 328.789H305.279L314.474 364.767H328.479ZM287.063 350.235H289.938V354.761H286.993C286.056 354.761 285.845 354.259 285.845 353.25V351.668C285.845 350.733 286.056 350.235 287.063 350.235ZM301.65 338.935C301.65 332.958 299.135 328.789 291.813 328.789H275.857V339.723C276.712 339.074 278.3 338.859 279.661 338.859H288.864C289.795 338.859 289.94 339.152 289.94 340.157V341.815H283.902C276.646 341.815 274.133 345.982 274.133 351.883V354.476C274.133 360.588 276.712 364.767 283.902 364.767H301.652L301.65 338.935ZM255.469 364.767H267.184V314.398H255.469V364.767ZM231.553 328.789V314.398H219.841V364.769H231.553V339.074H234.644C235.505 339.074 235.644 339.44 235.644 340.445V364.769H247.364V339.074C247.364 333.034 244.99 328.789 237.517 328.789H231.553ZM199.004 326.2H210.714V314.398H199.004V326.2ZM199.004 364.767H210.714V328.791H199.004V364.767ZM177.307 353.469H172.777C172.133 353.469 171.416 353.397 170.695 353.107V364.767H180.972C188.231 364.767 190.673 360.588 190.673 354.546V314.398H178.385V352.104C178.385 353.107 178.092 353.469 177.307 353.469Z" fill="white"/>
</g>
<circle cx="269.5" cy="197.418" r="87.4183" fill="#CA1517"/>
<path fill-rule="evenodd" clip-rule="evenodd" d="M356.918 197.418C356.918 245.698 317.78 284.837 269.5 284.837C221.22 284.837 182.082 245.698 182.082 197.418C182.082 149.139 221.22 110 269.5 110C317.78 110 356.918 149.139 356.918 197.418ZM277.729 229.648L278.97 138.256H262.083L263.324 229.648H277.729ZM262.642 263.113C264.835 265.307 267.464 266.404 270.527 266.404C272.596 266.404 274.459 265.907 276.114 264.914C277.811 263.879 279.157 262.513 280.15 260.816C281.185 259.119 281.702 257.256 281.702 255.228C281.702 252.165 280.605 249.537 278.412 247.343C276.218 245.149 273.589 244.052 270.527 244.052C267.464 244.052 264.835 245.149 262.642 247.343C260.448 249.537 259.351 252.165 259.351 255.228C259.351 258.291 260.448 260.919 262.642 263.113Z" fill="white"/>
</g>
<defs>
<clipPath id="clip0_64_271">
<rect width="512" height="512" fill="white"/>
</clipPath>
<clipPath id="clip1_64_271">
<rect width="277" height="120.595" fill="white" transform="translate(131 282.203)"/>
</clipPath>
</defs>
</svg>
