<svg width="72" height="72" viewBox="0 0 72 72" fill="none" xmlns="http://www.w3.org/2000/svg">
<g clip-path="url(#clip0_64_206)">
<path d="M0 0H72V72H0V0Z" fill="#CA1517"/>
<path d="M26.1784 40.9364C25.5407 40.9802 24.868 40.9172 24.2877 41.2307C23.7776 41.2621 23.2642 41.2433 22.7604 41.3249C22.432 41.5537 22.4381 41.9896 22.3074 42.3251C22.8144 42.3157 23.3216 42.2999 23.8253 42.281L23.6306 42.6636L24.0453 42.4849L24.0417 42.8987L24.4499 42.9272L24.2841 43.4535L24.6157 43.4787C24.3383 45.3128 25.4543 47.2943 27.4471 47.5013C27.7659 48.9466 27.6511 50.5295 26.7105 51.7365C26.465 51.7867 25.9804 51.8902 25.7381 51.9404C25.8241 52.0627 25.9995 52.3012 26.0856 52.4203C26.4969 52.4047 26.9082 52.3826 27.3196 52.3638C27.7691 50.5924 28.6235 48.9591 29.3377 47.2849C30.374 48.5986 31.0693 50.2414 30.8366 51.9344C30.5528 52.1162 30.2719 52.3043 29.9945 52.4924C30.7757 53.0818 31.5444 52.5329 32.2681 52.141C32.7496 50.956 33.6199 49.9433 33.8622 48.6673C34.0599 47.9462 34.3948 47.2721 34.7679 46.6232C34.7424 47.5919 35.4405 48.3756 35.4596 49.3318C35.5106 50.4072 36.1324 51.8368 34.908 52.4984C35.3927 52.6457 35.8932 52.699 36.397 52.6081C36.2344 51.9403 36.1071 51.2569 36.1326 50.5672C36.2315 49.2316 35.9698 47.8583 36.5119 46.5823C36.971 46.7516 37.4333 46.9243 37.9084 47.0466C37.6119 46.6798 37.2389 46.3849 36.8626 46.0996C36.8372 45.5008 36.9616 44.8517 36.6459 44.3062C36.2697 43.6541 35.6669 43.1558 35.3513 42.4692C35.1567 42.0522 34.8858 41.5946 34.3629 41.5696C33.5435 41.3187 33.2245 42.2999 32.7941 42.7576C32.5492 42.2978 32.3537 41.8133 32.2107 41.3124C31.6272 41.234 30.9897 41.077 30.4349 41.356C29.6186 42.3404 28.6588 43.1936 27.817 44.1561C27.428 44.1525 27.0388 44.1402 26.6498 44.1308C26.4553 43.0712 27.023 41.811 26.1781 40.9363L26.1784 40.9364ZM32.7528 47.5358C32.7082 49.0344 32.8297 50.8715 31.4236 51.8559C31.2227 50.4671 31.4586 49.0623 31.4969 47.6671C31.9145 47.6295 32.3351 47.5828 32.7528 47.5358H32.7528Z" fill="#CA1517"/>
<g clip-path="url(#clip1_64_206)">
<path d="M56.4531 39.7703H15V57.8173H56.4531V39.7703Z" fill="#CA1517"/>
<path d="M48.2238 49.9512H48.6539V50.6286H48.213C48.073 50.6286 48.0403 50.5534 48.0403 50.4024V50.1657C48.04 50.0258 48.073 49.9512 48.2238 49.9512ZM50.4067 48.2602C50.4067 47.3657 50.0306 46.7419 48.933 46.7419H46.5455V48.3781C46.6744 48.281 46.9111 48.2488 47.116 48.2488H48.4923C48.632 48.2488 48.6536 48.2927 48.6536 48.4431V48.6913H47.7501C46.6642 48.6913 46.2875 49.3148 46.2875 50.1979V50.5859C46.2875 51.5006 46.6741 52.1259 47.7501 52.1259H50.4067V48.2602ZM44.5528 52.1259L45.9409 46.7419H44.0382L43.5648 50.2087L43.0695 46.7419H41.0809L42.457 52.1259H44.5528ZM38.3549 49.9512H38.7851V50.6286H38.3444C38.2042 50.6286 38.1726 50.5534 38.1726 50.4024V50.1657C38.1726 50.0258 38.2042 49.9512 38.3549 49.9512ZM40.5378 48.2602C40.5378 47.3657 40.1615 46.7419 39.0657 46.7419H36.6779V48.3781C36.8059 48.281 37.0435 48.2488 37.2471 48.2488H38.6244C38.7638 48.2488 38.7854 48.2927 38.7854 48.4431V48.6913H37.8818C36.7959 48.6913 36.4199 49.3148 36.4199 50.1979V50.5859C36.4199 51.5006 36.8059 52.1259 37.8818 52.1259H40.5381L40.5378 48.2602ZM33.6269 52.1259H35.3799V44.5883H33.6269V52.1259ZM30.0478 46.7419V44.5883H28.2951V52.1262H30.0478V48.281H30.5104C30.6393 48.281 30.66 48.3357 30.66 48.4861V52.1262H32.4139V48.281C32.4139 47.3771 32.0586 46.7419 30.9402 46.7419H30.0478ZM25.1768 46.3545H26.9292V44.5883H25.1768V46.3545ZM25.1768 52.1259H26.9292V46.7422H25.1768V52.1259ZM21.9299 50.4352H21.2519C21.1555 50.4352 21.0483 50.4244 20.9404 50.3811V52.1259H22.4784C23.5646 52.1259 23.9302 51.5006 23.9302 50.5964V44.5883H22.0912V50.231C22.0912 50.3811 22.0473 50.4352 21.9299 50.4352Z" fill="white"/>
</g>
<circle cx="35.7266" cy="27.0822" r="13.0822" fill="#CA1517"/>
<path fill-rule="evenodd" clip-rule="evenodd" d="M48.8087 27.0822C48.8087 34.3072 42.9517 40.1643 35.7266 40.1643C28.5014 40.1643 22.6444 34.3072 22.6444 27.0822C22.6444 19.8571 28.5014 14 35.7266 14C42.9517 14 48.8087 19.8571 48.8087 27.0822ZM36.958 31.9054L37.1438 18.2286H34.6166L34.8024 31.9054H36.958ZM34.7002 36.9134C35.0285 37.2417 35.4218 37.4058 35.8802 37.4058C36.1899 37.4058 36.4686 37.3315 36.7164 37.1829C36.9704 37.028 37.1717 36.8236 37.3203 36.5696C37.4752 36.3157 37.5526 36.0369 37.5526 35.7334C37.5526 35.275 37.3885 34.8817 37.0602 34.5534C36.7319 34.2251 36.3386 34.061 35.8802 34.061C35.4218 34.061 35.0285 34.2251 34.7002 34.5534C34.3719 34.8817 34.2078 35.275 34.2078 35.7334C34.2078 36.1918 34.3719 36.5851 34.7002 36.9134Z" fill="white"/>
</g>
<defs>
<clipPath id="clip0_64_206">
<rect width="72" height="72" fill="white"/>
</clipPath>
<clipPath id="clip1_64_206">
<rect width="41.4531" height="18.0471" fill="white" transform="translate(15 39.7703)"/>
</clipPath>
</defs>
</svg>
