<?xml version="1.0" encoding="UTF-8" standalone="no"?>
<svg
   xmlns:dc="http://purl.org/dc/elements/1.1/"
   xmlns:cc="http://creativecommons.org/ns#"
   xmlns:rdf="http://www.w3.org/1999/02/22-rdf-syntax-ns#"
   xmlns:svg="http://www.w3.org/2000/svg"
   xmlns="http://www.w3.org/2000/svg"
   xmlns:sodipodi="http://sodipodi.sourceforge.net/DTD/sodipodi-0.dtd"
   xmlns:inkscape="http://www.inkscape.org/namespaces/inkscape"
   viewBox="0 -960 1024 1024"
   version="1.1"
   id="svg18"
   sodipodi:docname="icon-template.svg"
   width="1024"
   height="1024"
   inkscape:version="1.0.2-2 (e86c870879, 2021-01-15)"
   inkscape:export-filename="C:\Users\d22b290c\Desktop\aplikaceMhd\images\app_icons\icon-48x48.png"
   inkscape:export-xdpi="4.5"
   inkscape:export-ydpi="4.5">
  <metadata
     id="metadata24">
    <rdf:RDF>
      <cc:Work
         rdf:about="">
        <dc:format>image/svg+xml</dc:format>
        <dc:type
           rdf:resource="http://purl.org/dc/dcmitype/StillImage" />
      </cc:Work>
    </rdf:RDF>
  </metadata>
  <defs
     id="defs22">
    <inkscape:path-effect
       effect="bspline"
       id="path-effect897"
       is_visible="true"
       lpeversion="1"
       weight="33.333333"
       steps="2"
       helper_size="0"
       apply_no_weight="true"
       apply_with_weight="true"
       only_selected="false" />
  </defs>
  <sodipodi:namedview
     pagecolor="#ffffff"
     bordercolor="#666666"
     borderopacity="1"
     objecttolerance="10"
     gridtolerance="10"
     guidetolerance="10"
     inkscape:pageopacity="0"
     inkscape:pageshadow="2"
     inkscape:window-width="1525"
     inkscape:window-height="1378"
     id="namedview20"
     showgrid="false"
     inkscape:zoom="0.43190159"
     inkscape:cx="371.41858"
     inkscape:cy="603.5959"
     inkscape:window-x="0"
     inkscape:window-y="0"
     inkscape:window-maximized="0"
     inkscape:current-layer="g933"
     inkscape:document-rotation="0" />
  <path
     fill="#ffffff"
     d="m -12987,-12830.45 h 1706.66 v 1706.66 H -12987 Z"
     id="path2" />
  <path
     fill="none"
     stroke="#ffffff"
     stroke-width="400"
     d="m -18945.82,-14884.66 -3047.79,1695.12 -2553.97,-2374.8 1469.34,-3162.82 3462.08,420.06 z"
     paint-order="markers fill stroke"
     id="path4" />
  <g
     transform="matrix(0.0512,0,0,0.0512,0,-910.848)"
     id="g16"
     style="stroke-width:0.99609375;stroke-miterlimit:4;stroke-dasharray:none;fill:#e4e8e4;fill-opacity:1">
    <path
       fill="#3f78c0"
       d="M 0,-960 H 20000 V 19040 H 0 Z"
       paint-order="markers stroke fill"
       id="path6"
       style="stroke-width:0.99609375;stroke-miterlimit:4;stroke-dasharray:none;fill:#e4e8e4;fill-opacity:1" />
    <path
       fill="#3f78c0"
       d="m 7271.78,10411.2 c -177.14,12.19 -364,-5.31 -525.19,81.76 -141.71,8.72 -284.31,3.51 -424.25,26.16 -91.23,63.57 -89.54,184.66 -125.85,277.84 140.83,-2.61 281.72,-7 421.66,-12.24 l -54.1,106.26 115.2,-49.62 -1,114.94 113.4,7.9 -46.07,146.2 92.12,7 c -77.06,509.47 232.93,1059.91 786.49,1117.39 88.57,401.47 56.68,841.16 -204.6,1176.45 -68.2,13.95 -202.81,42.7 -270.12,56.64 23.9,33.96 72.61,100.22 96.52,133.3 114.26,-4.34 228.52,-10.46 342.78,-15.69 124.88,-492.05 362.21,-945.75 560.6,-1410.8 287.86,364.9 481,821.25 416.35,1291.52 -78.83,50.51 -156.87,102.75 -233.93,155 217,163.72 430.53,11.25 631.58,-97.6 133.74,-329.18 375.5,-610.48 442.8,-964.93 54.92,-200.3 147.94,-387.54 251.57,-567.81 -7.08,269.1 186.83,486.79 192.15,752.4 14.16,298.71 186.88,695.84 -153.23,879.6 134.63,40.92 273.68,55.74 413.62,30.48 -45.18,-185.5 -80.52,-375.32 -73.44,-566.92 27.46,-370.99 -45.22,-752.47 105.35,-1106.92 127.54,47.03 255.96,95.01 387.93,128.97 -82.37,-101.89 -185.98,-183.8 -290.5,-263.04 -7.07,-166.34 27.5,-346.63 -60.2,-498.17 -104.5,-181.14 -271.95,-319.55 -359.63,-510.27 -54.03,-115.83 -129.28,-242.94 -274.53,-249.91 -227.63,-69.67 -316.23,202.87 -435.8,330.02 a 2053.1,2053.1 0 0 1 -162.05,-401.46 c -162.08,-21.77 -339.16,-65.39 -493.27,12.12 -226.74,273.45 -493.37,510.43 -727.2,777.8 -108.05,-1 -216.16,-4.4 -324.22,-7.02 -54.03,-294.35 103.67,-644.4 -131.04,-887.37 z m 1826.23,1833.17 c -12.4,416.28 21.34,926.6 -369.24,1200.05 -55.8,-385.8 9.74,-776.02 20.36,-1163.56 116.02,-10.44 232.84,-23.43 348.87,-36.49 z"
       id="path14"
       style="stroke-width:0.99609375;stroke-miterlimit:4;stroke-dasharray:none;fill:#e4e8e4;fill-opacity:1" />
  </g>
  <path
     style="fill:none;stroke:#ff80e1;stroke-width:34.59999619;stroke-linecap:butt;stroke-linejoin:miter;stroke-miterlimit:4;stroke-dasharray:none;stroke-opacity:1"
     d="M 0,64 C 146.20383,9.2249264 292.40421,-45.548855 365.94242,-110.54663 c 73.53821,-64.99778 74.40892,-140.21405 83.18121,-214.11479 8.7723,-73.90073 25.44562,-146.47823 63.02411,-191.00889 37.57849,-44.53065 96.05746,-61.01109 127.95664,-105.66989 31.89917,-44.6588 37.21544,-117.49171 96.76907,-178.63305 C 796.42707,-861.1146 910.21263,-910.55691 1024,-960"
     id="path895"
     inkscape:path-effect="#path-effect897"
     inkscape:original-d="M 0,64 C 146.20428,9.2261334 292.40466,-45.547649 438.60988,-100.32462 c 0.87176,-75.21978 1.74247,-150.43605 2.61223,-225.65784 16.67499,-72.57942 33.34831,-145.15692 50.02096,-217.73689 58.48349,-16.48043 116.96247,-32.96086 175.44396,-49.44329 5.31759,-72.83628 10.63386,-145.66919 15.94945,-218.50747 C 796.42759,-861.1134 910.21316,-910.5557 1024,-960"
     sodipodi:nodetypes="ccccccc" />
  <g
     id="g933"
     transform="matrix(1.2342525,0,0,1.2342525,-119.93728,131.41187)">
    <path
       sodipodi:type="star"
       style="fill:#ffffff;fill-opacity:1;stroke-width:8.17729;stroke-linecap:round;paint-order:markers stroke fill"
       id="path859"
       sodipodi:sides="3"
       sodipodi:cx="633.21582"
       sodipodi:cy="-622.14716"
       sodipodi:r1="99.138954"
       sodipodi:r2="49.569473"
       sodipodi:arg1="1.0471976"
       sodipodi:arg2="2.0943951"
       inkscape:flatsided="true"
       inkscape:rounded="0"
       inkscape:randomized="0"
       inkscape:transform-center-x="24.784739"
       d="M 682.78529,-536.2903 534.07687,-622.14716 682.7853,-708.00401 Z" />
    <path
       sodipodi:type="star"
       style="fill:#4db346;fill-opacity:1;stroke-width:4.56422;stroke-linecap:round;paint-order:markers stroke fill"
       id="path859-8"
       sodipodi:sides="3"
       sodipodi:cx="632.79492"
       sodipodi:cy="-620.55231"
       sodipodi:r1="55.335213"
       sodipodi:r2="27.66761"
       sodipodi:arg1="1.0471976"
       sodipodi:arg2="2.0943951"
       inkscape:flatsided="true"
       inkscape:rounded="0"
       inkscape:randomized="0"
       inkscape:transform-center-x="13.833804"
       d="m 660.46253,-572.63061 -83.00282,-47.9217 83.00282,-47.9217 z" />
    <circle
       style="fill:#ffffff;stroke-width:14.4644;stroke-linecap:round;paint-order:markers stroke fill"
       id="path837"
       cx="511.99994"
       cy="-421.18411"
       r="212.12769" />
    <circle
       style="fill:#4db346;fill-opacity:1;stroke-width:12.7244;stroke-linecap:round;paint-order:markers stroke fill"
       id="path837-2"
       cx="511.99994"
       cy="-421.18411"
       r="186.60857" />
    <text
       xml:space="preserve"
       style="font-weight:bold;font-size:40px;line-height:1.25;font-family:sans-serif;-inkscape-font-specification:'sans-serif Bold';letter-spacing:-7.54px;fill:#ffffff"
       x="360.07703"
       y="-376.52567"
       id="text885"><tspan
         sodipodi:role="line"
         id="tspan883"
         x="360.07703"
         y="-376.52567"
         style="font-size:120px;letter-spacing:-7.54px;fill:#ffffff">MHD</tspan></text>
  </g>
</svg>
