<svg width="128" height="128" viewBox="0 0 128 128" fill="none" xmlns="http://www.w3.org/2000/svg">
<g clip-path="url(#clip0_64_167)">
<path d="M0 0H128V128H0V0Z" fill="#CA1517"/>
<path d="M46.5394 72.7756C45.4057 72.8537 44.2098 72.7417 43.1782 73.2989C42.2713 73.3547 41.3586 73.3214 40.463 73.4663C39.8792 73.8732 39.89 74.6482 39.6576 75.2445C40.5589 75.2278 41.4606 75.1997 42.3562 75.1662L42.01 75.8462L42.7473 75.5287L42.7409 76.2643L43.4666 76.3148L43.1718 77.2505L43.7613 77.2953C43.2682 80.5559 45.2521 84.0787 48.7949 84.4466C49.3617 87.016 49.1576 89.83 47.4854 91.9759C47.049 92.0652 46.1874 92.2492 45.7567 92.3384C45.9096 92.5557 46.2214 92.9798 46.3744 93.1915C47.1057 93.1637 47.8369 93.1246 48.5682 93.0911C49.3674 89.942 50.8863 87.0383 52.156 84.062C53.9983 86.3973 55.2344 89.318 54.8207 92.3277C54.3161 92.651 53.8167 92.9853 53.3235 93.3197C54.7123 94.3675 56.0789 93.3917 57.3656 92.6951C58.2216 90.5883 59.7688 88.788 60.1995 86.5195C60.551 85.2376 61.1464 84.0393 61.8096 82.8855C61.7643 84.6078 63.0053 86.001 63.0393 87.7009C63.13 89.6126 64.2354 92.1543 62.0587 93.3303C62.9203 93.5922 63.8102 93.6871 64.7058 93.5254C64.4167 92.3382 64.1905 91.1234 64.2358 89.8971C64.4116 87.5228 63.9464 85.0813 64.9101 82.8128C65.7263 83.1138 66.5482 83.4209 67.3928 83.6382C66.8657 82.9861 66.2026 82.4619 65.5336 81.9548C65.4884 80.8902 65.7096 79.7363 65.1483 78.7665C64.4795 77.6072 63.4079 76.7214 62.8467 75.5008C62.5009 74.7595 62.0193 73.9459 61.0897 73.9013C59.6329 73.4554 59.0658 75.1997 58.3006 76.0135C57.8653 75.196 57.5177 74.3347 57.2635 73.4441C56.2262 73.3048 55.0929 73.0256 54.1065 73.5217C52.6554 75.2718 50.949 76.7884 49.4525 78.4996C48.761 78.4932 48.069 78.4714 47.3775 78.4547C47.0317 76.5708 48.041 74.3305 46.5388 72.7755L46.5394 72.7756ZM58.2273 84.5079C58.148 87.1721 58.3639 90.4382 55.8642 92.1883C55.5071 89.7191 55.9265 87.2217 55.9945 84.7415C56.737 84.6747 57.4847 84.5915 58.2273 84.5079H58.2273Z" fill="#CA1517"/>
<g clip-path="url(#clip1_64_167)">
<path d="M100.673 70.8005H27V102.875H100.673V70.8005Z" fill="#CA1517"/>
<path d="M86.0473 88.8947H86.8118V90.0986H86.0281C85.7793 90.0986 85.7211 89.9649 85.7211 89.6966V89.2759C85.7206 89.0273 85.7793 88.8947 86.0473 88.8947ZM89.9269 85.8894C89.9269 84.2995 89.2585 83.1908 87.3078 83.1908H83.0646V86.0989C83.2937 85.9262 83.7143 85.869 84.0784 85.869H86.5246C86.7729 85.869 86.8113 85.9471 86.8113 86.2144V86.6554H85.2054C83.2755 86.6554 82.606 87.7636 82.606 89.3331V90.0227C82.606 91.6483 83.2931 92.7597 85.2054 92.7597H89.9269V85.8894ZM79.523 92.7597L81.99 83.1908H78.6085L77.7671 89.3523L76.8868 83.1908H73.3526L75.7982 92.7597H79.523ZM68.5078 88.8947H69.2723V90.0986H68.4891C68.2398 90.0986 68.1837 89.9649 68.1837 89.6966V89.2759C68.1837 89.0273 68.2398 88.8947 68.5078 88.8947ZM72.3874 85.8894C72.3874 84.2995 71.7184 83.1908 69.7709 83.1908H65.5272V86.0989C65.7547 85.9262 66.1769 85.869 66.5389 85.869H68.9867C69.2344 85.869 69.2728 85.9471 69.2728 86.2144V86.6554H67.667C65.737 86.6554 65.0686 87.7636 65.0686 89.3331V90.0227C65.0686 91.6483 65.7547 92.7597 67.667 92.7597H72.3879L72.3874 85.8894ZM60.1048 92.7597H63.2204V79.3633H60.1048V92.7597ZM53.7438 83.1908V79.3633H50.6287V92.7602H53.7438V85.9262H54.566C54.795 85.9262 54.8318 86.0235 54.8318 86.2908V92.7602H57.9491V85.9262C57.9491 84.3198 57.3175 83.1908 55.3299 83.1908H53.7438ZM45.0867 82.5023H48.2012V79.3633H45.0867V82.5023ZM45.0867 92.7597H48.2012V83.1914H45.0867V92.7597ZM39.3162 89.7549H38.1112C37.9399 89.7549 37.7493 89.7356 37.5576 89.6586V92.7597H40.291C42.2214 92.7597 42.8712 91.6483 42.8712 90.0414V79.3633H39.6028V89.3919C39.6028 89.6586 39.5249 89.7549 39.3162 89.7549Z" fill="white"/>
</g>
<circle cx="63.8366" cy="48.2505" r="23.2505" fill="#CA1517"/>
<path fill-rule="evenodd" clip-rule="evenodd" d="M87.0871 48.2505C87.0871 61.0913 76.6776 71.5009 63.8366 71.5009C50.9956 71.5009 40.5862 61.0913 40.5862 48.2505C40.5862 35.4096 50.9956 25 63.8366 25C76.6776 25 87.0871 35.4096 87.0871 48.2505ZM66.0252 56.8226L66.3554 32.5153H61.8639L62.1941 56.8226H66.0252ZM62.0125 65.7232C62.5959 66.3066 63.295 66.5983 64.1096 66.5983C64.6601 66.5983 65.1555 66.4662 65.5958 66.202C66.0472 65.9268 66.405 65.5635 66.6692 65.1122C66.9444 64.6608 67.082 64.1654 67.082 63.626C67.082 62.8113 66.7903 62.1123 66.2068 61.5288C65.6234 60.9454 64.9243 60.6536 64.1096 60.6536C63.295 60.6536 62.5959 60.9454 62.0125 61.5288C61.429 62.1123 61.1373 62.8113 61.1373 63.626C61.1373 64.4406 61.429 65.1397 62.0125 65.7232Z" fill="white"/>
</g>
<defs>
<clipPath id="clip0_64_167">
<rect width="128" height="128" fill="white"/>
</clipPath>
<clipPath id="clip1_64_167">
<rect width="73.6731" height="32.0744" fill="white" transform="translate(27 70.8005)"/>
</clipPath>
</defs>
</svg>
