<svg width="1024" height="1024" viewBox="0 0 1024 1024" fill="none" xmlns="http://www.w3.org/2000/svg">
<g clip-path="url(#clip0_64_122)">
<path d="M0 0H1024V1024H0V0Z" fill="#CA1517"/>
<path d="M372.315 582.205C363.246 582.83 353.678 581.934 345.425 586.391C338.17 586.838 330.869 586.571 323.704 587.731C319.033 590.986 319.119 597.185 317.26 601.956C324.471 601.823 331.684 601.598 338.849 601.33L336.079 606.77L341.978 604.23L341.926 610.114L347.732 610.519L345.374 618.004L350.09 618.363C346.145 644.448 362.016 672.63 390.359 675.573C394.893 696.128 393.261 718.641 379.883 735.807C376.391 736.522 369.499 737.994 366.053 738.707C367.277 740.446 369.771 743.839 370.995 745.532C376.845 745.31 382.695 744.997 388.545 744.729C394.939 719.536 407.09 696.307 417.248 672.496C431.986 691.179 441.875 714.544 438.565 738.622C434.529 741.208 430.533 743.883 426.588 746.558C437.698 754.94 448.631 747.134 458.925 741.561C465.772 724.707 478.15 710.304 481.596 692.156C484.408 681.901 489.17 672.314 494.476 663.084C494.114 676.862 504.042 688.008 504.314 701.607C505.039 716.901 513.883 737.234 496.469 746.643C503.362 748.738 510.481 749.497 517.646 748.203C515.333 738.706 513.524 728.987 513.886 719.177C515.292 700.182 511.571 680.651 519.28 662.503C525.81 664.911 532.385 667.367 539.142 669.106C534.925 663.889 529.62 659.696 524.269 655.638C523.907 647.122 525.677 637.891 521.186 630.132C515.836 620.858 507.262 613.771 502.773 604.006C500.007 598.076 496.154 591.568 488.717 591.211C477.063 587.644 472.526 601.598 466.404 608.108C462.922 601.568 460.141 594.678 458.107 587.553C449.809 586.439 440.742 584.205 432.852 588.174C421.243 602.174 407.591 614.308 395.619 627.997C390.087 627.946 384.552 627.772 379.019 627.638C376.253 612.567 384.327 594.644 372.31 582.204L372.315 582.205ZM465.818 676.064C465.183 697.377 466.911 723.506 446.913 737.506C444.056 717.753 447.412 697.774 447.955 677.932C453.896 677.397 459.877 676.732 465.818 676.064H465.818Z" fill="#CA1517"/>
<g clip-path="url(#clip1_64_122)">
<path d="M787 562.92H237V802.369H787V562.92Z" fill="#CA1517"/>
<path d="M677.813 698.001H683.52V706.988H677.67C675.812 706.988 675.378 705.991 675.378 703.987V700.846C675.374 698.991 675.812 698.001 677.813 698.001ZM706.776 675.565C706.776 663.696 701.786 655.419 687.223 655.419H655.546V677.129C657.256 675.84 660.396 675.413 663.114 675.413H681.376C683.229 675.413 683.516 675.996 683.516 677.991V681.283H671.528C657.12 681.283 652.122 689.556 652.122 701.273V706.422C652.122 718.558 657.252 726.855 671.528 726.855H706.776V675.565ZM629.106 726.855L647.523 655.419H622.279L615.998 701.417L609.426 655.419H583.042L601.299 726.855H629.106ZM546.873 698.001H552.58V706.988H546.734C544.872 706.988 544.454 705.991 544.454 703.987V700.846C544.454 698.991 544.872 698.001 546.873 698.001ZM575.836 675.565C575.836 663.696 570.842 655.419 556.303 655.419H524.622V677.129C526.32 675.84 529.472 675.413 532.175 675.413H550.448C552.297 675.413 552.584 675.996 552.584 677.991V681.283H540.596C526.188 681.283 521.199 689.556 521.199 701.273V706.422C521.199 718.558 526.32 726.855 540.596 726.855H575.84L575.836 675.565ZM484.141 726.855H507.401V626.845H484.141V726.855ZM436.654 655.419V626.845H413.399V726.859H436.654V675.84H442.792C444.501 675.84 444.776 676.566 444.776 678.562V726.859H468.048V675.84C468.048 663.848 463.333 655.419 448.495 655.419H436.654ZM372.025 650.279H395.276V626.845H372.025V650.279ZM372.025 726.855H395.276V655.423H372.025V726.855ZM328.946 704.422H319.95C318.671 704.422 317.248 704.279 315.817 703.704V726.855H336.223C350.635 726.855 355.485 718.558 355.485 706.561V626.845H331.086V701.712C331.086 703.704 330.504 704.422 328.946 704.422Z" fill="white"/>
</g>
<circle cx="512" cy="394.574" r="173.574" fill="#CA1517"/>
<path fill-rule="evenodd" clip-rule="evenodd" d="M685.574 394.574C685.574 490.436 607.863 568.148 512 568.148C416.137 568.148 338.426 490.436 338.426 394.574C338.426 298.712 416.137 221 512 221C607.863 221 685.574 298.712 685.574 394.574ZM528.338 458.569L530.804 277.105H497.273L499.738 458.569H528.338ZM498.382 525.015C502.738 529.371 507.957 531.549 514.038 531.549C518.147 531.549 521.846 530.563 525.133 528.59C528.503 526.535 531.174 523.823 533.146 520.454C535.201 517.084 536.228 513.386 536.228 509.359C536.228 503.277 534.05 498.058 529.694 493.703C525.339 489.347 520.12 487.169 514.038 487.169C507.957 487.169 502.738 489.347 498.382 493.703C494.026 498.058 491.848 503.277 491.848 509.359C491.848 515.44 494.026 520.659 498.382 525.015Z" fill="white"/>
</g>
<defs>
<clipPath id="clip0_64_122">
<rect width="1024" height="1024" fill="white"/>
</clipPath>
<clipPath id="clip1_64_122">
<rect width="550" height="239.449" fill="white" transform="translate(237 562.92)"/>
</clipPath>
</defs>
</svg>
