<svg width="360" height="270" viewBox="0 0 360 270" fill="none" xmlns="http://www.w3.org/2000/svg">
<rect width="360" height="270" fill="#F5F5F5"/>
<path d="M115.883 174.384H106.294V116.686H96.7056V174.384H87.117C84.5739 174.384 82.135 175.397 80.3368 177.2C78.5385 179.004 77.5283 181.45 77.5283 184H125.472C125.472 181.45 124.461 179.004 122.663 177.2C120.865 175.397 118.426 174.384 115.883 174.384Z" fill="#D0CDE1"/>
<path d="M67.8428 63.8994V83.0943C67.8428 92.0033 71.3888 100.547 77.7008 106.847C84.0127 113.146 92.5736 116.686 101.5 116.686C110.426 116.686 118.987 113.146 125.299 106.847C131.611 100.547 135.157 92.0033 135.157 83.0943L131.319 78.3137L103.765 83.0943L67.8428 63.8994Z" fill="#D0CDE1"/>
<path d="M139.516 88.1132C130.733 99.5901 116.995 107.017 101.5 107.017C86.0046 107.017 72.2667 99.5901 63.4843 88.1132C64.6402 96.5405 68.5206 104.349 74.5247 110.33C80.5289 116.311 88.3222 120.131 96.6982 121.199V126.371H106.302V121.199C114.677 120.129 122.47 116.309 128.474 110.328C134.477 104.347 138.358 96.5398 139.516 88.1132Z" fill="black"/>
<path fill-rule="evenodd" clip-rule="evenodd" d="M74.3487 30H63V82.9375C63 93.1483 67.0562 102.941 74.2764 110.161C81.4965 117.381 91.2892 121.438 101.5 121.438C111.711 121.438 121.503 117.381 128.724 110.161C135.944 102.941 140 93.1483 140 82.9375V30H92.1603L97.7255 41.3235V50.3824L116.598 74.9167L88.6987 53.6775L74.3487 30Z" fill="#D0CDE1"/>
<path d="M67.5294 76.8039V91.3529C67.5294 98.1056 71.1085 104.582 77.4792 109.356C83.8499 114.131 92.4904 116.814 101.5 116.814C110.51 116.814 119.15 114.131 125.521 109.356C131.892 104.582 135.471 98.1056 135.471 91.3529V76.8039H67.5294Z" fill="#CA1517"/>
<path d="M139.516 88.1132C130.733 99.5901 116.995 107.017 101.5 107.017C86.0046 107.017 72.2667 99.5901 63.4843 88.1132C64.6402 96.5405 68.5206 104.349 74.5247 110.33C80.5289 116.311 88.3222 120.131 96.6982 121.199V126.371H106.302V121.199C114.677 120.129 122.47 116.309 128.474 110.328C134.477 104.347 138.358 96.5398 139.516 88.1132Z" fill="#2F2E41"/>
<path d="M232 220H221V159.236C219.185 159.396 217.359 159.5 215.5 159.5C213.641 159.5 211.815 159.396 210 159.236V220H199C196.083 220 193.285 221.159 191.222 223.222C189.159 225.285 188 228.083 188 231H243C243 228.083 241.841 225.285 239.778 223.222C237.715 221.159 234.917 220 232 220Z" fill="#D0CDE1"/>
<path d="M273.36 116.699C259.242 132.792 238.584 143 215.5 143C192.417 143 171.759 132.792 157.64 116.699C164.697 139.788 185.184 156.998 210 159.236V165H221V159.236C245.816 156.998 266.298 139.788 273.36 116.699Z" fill="black"/>
<path fill-rule="evenodd" clip-rule="evenodd" d="M193.028 55H160.5C155 71.5 155 99 155 99C155 132.412 182.088 159.5 215.5 159.5C248.912 159.5 276 132.412 276 99C276 99 276 71.5 270.5 55H220.991L236.84 72.5803L191.41 108.9L209.34 81.9L193.028 55Z" fill="#D0CDE1"/>
<path d="M215.5 146.96C242.227 146.96 263.9 130.212 263.9 109.56H167.1C167.1 130.212 188.774 146.96 215.5 146.96Z" fill="#CA1517"/>
<path d="M273.36 116.6C259.242 132.693 238.584 142.901 215.5 142.901C192.417 142.901 171.759 132.693 157.64 116.6C164.697 139.689 185.184 156.898 210 159.137V164.901H221V159.137C245.816 156.898 266.298 139.689 273.36 116.6Z" fill="#2F2E41"/>
</svg>
