<svg width="360" height="270" viewBox="0 0 360 270" fill="none" xmlns="http://www.w3.org/2000/svg">
<rect width="360" height="270" fill="#F5F5F5"/>
<path d="M172 99H188V236H172V99Z" fill="#D0CDE1"/>
<path d="M172 197H188V236H172V197Z" fill="#CCCCCC"/>
<path d="M172 99H188V116H172V99Z" fill="black"/>
<path d="M200 240V235.411C200 232.977 197.981 231 195.495 231H164.505C162.019 231 160 232.977 160 235.411V240H200Z" fill="#2B3E49"/>
<path d="M208 47C208 31.5392 195.461 19 180 19C164.539 19 152 31.5392 152 47H208Z" fill="#A4A9AD"/>
<path d="M208 47C208 41.4834 206.449 36.3608 203.786 32H156.214C153.551 36.3608 152 41.4834 152 47H208Z" fill="black"/>
<path d="M208 43H152L160.846 99H199.154L208 43Z" fill="#CA1517"/>
<path d="M203.577 75.1751H156.397C154.326 75.1751 152.644 73.5162 152.644 71.4745C152.644 69.4328 154.326 67.7739 156.397 67.7739H203.577C205.648 67.7739 207.33 69.4328 207.33 71.4745C207.33 73.5162 205.648 75.1751 203.577 75.1751ZM208.003 51.7211H151.971C147.572 51.7211 144 48.1991 144 43.8605C144 39.5219 147.572 36 151.971 36H208.029C212.428 36 216 39.5219 216 43.8605C216 48.1736 212.428 51.7211 208.003 51.7211ZM199.152 107H160.848C156.449 107 152.877 103.478 152.877 99.1395C152.877 94.8009 156.449 91.2789 160.848 91.2789H199.152C203.551 91.2789 207.123 94.8009 207.123 99.1395C207.123 103.478 203.551 107 199.152 107Z" fill="#333E48"/>
<path d="M206.674 250C207.94 250 209 249.015 209 247.783V246.232C209 242.783 206.079 240 202.461 240H157.539C153.921 240 151 242.783 151 246.232V247.783C151 248.99 152.034 250 153.326 250H206.674Z" fill="#A4A9AD"/>
<path d="M121.055 92C119.503 92 118.081 91.0507 117.538 89.5114C116.84 87.5872 117.874 85.4577 119.813 84.7906L137.811 78.5049C139.751 77.8122 141.897 78.8385 142.569 80.7627C143.267 82.6869 142.233 84.8163 140.294 85.4834L122.296 91.7691C121.908 91.9487 121.468 92 121.055 92ZM139.078 65.3947C138.923 65.3947 138.768 65.3947 138.587 65.369L115.262 62.3929C113.219 62.1364 111.771 60.2635 112.03 58.2367C112.288 56.2098 114.176 54.7731 116.219 55.0297L139.544 58.0058C141.587 58.2623 143.035 60.1352 142.776 62.162C142.543 64.0349 140.914 65.3947 139.078 65.3947ZM238.945 92C238.532 92 238.118 91.923 237.704 91.7948L219.706 85.509C217.767 84.8163 216.733 82.7125 217.431 80.7883C218.129 78.8641 220.249 77.8379 222.189 78.5306L240.187 84.8163C242.126 85.509 243.16 87.6128 242.462 89.537C241.919 91.0507 240.471 92 238.945 92ZM220.922 65.3947C219.06 65.3947 217.457 64.0349 217.224 62.162C216.965 60.1352 218.413 58.2623 220.456 58.0058L243.781 55.0297C245.824 54.7731 247.712 56.2098 247.97 58.2367C248.229 60.2635 246.781 62.1364 244.738 62.3929L221.413 65.369C221.258 65.3947 221.103 65.3947 220.922 65.3947Z" fill="#CA1517"/>
</svg>
