<?xml version="1.0" encoding="UTF-8" standalone="no"?>
<svg
   xmlns:dc="http://purl.org/dc/elements/1.1/"
   xmlns:cc="http://creativecommons.org/ns#"
   xmlns:rdf="http://www.w3.org/1999/02/22-rdf-syntax-ns#"
   xmlns:svg="http://www.w3.org/2000/svg"
   xmlns="http://www.w3.org/2000/svg"
   xmlns:sodipodi="http://sodipodi.sourceforge.net/DTD/sodipodi-0.dtd"
   xmlns:inkscape="http://www.inkscape.org/namespaces/inkscape"
   id="Vrstva_1"
   viewBox="0 0 141.72856 29.83"
   version="1.1"
   sodipodi:docname="header-logo-dost-theme.svg"
   inkscape:version="1.0.2-2 (e86c870879, 2021-01-15)"
   width="141.72856"
   height="29.83">
  <metadata
     id="metadata11">
    <rdf:RDF>
      <cc:Work
         rdf:about="">
        <dc:format>image/svg+xml</dc:format>
        <dc:type
           rdf:resource="http://purl.org/dc/dcmitype/StillImage" />
      </cc:Work>
    </rdf:RDF>
  </metadata>
  <sodipodi:namedview
     pagecolor="#ffffff"
     bordercolor="#666666"
     borderopacity="1"
     objecttolerance="10"
     gridtolerance="10"
     guidetolerance="10"
     inkscape:pageopacity="0"
     inkscape:pageshadow="2"
     inkscape:window-width="2286"
     inkscape:window-height="1135"
     id="namedview9"
     showgrid="false"
     inkscape:zoom="4.987249"
     inkscape:cx="125.31451"
     inkscape:cy="14.91"
     inkscape:window-x="0"
     inkscape:window-y="0"
     inkscape:window-maximized="0"
     inkscape:current-layer="Vrstva_1"
     inkscape:document-rotation="0" />
  <defs
     id="defs4">
    <style
       id="style2">.cls-1{fill:#425cc7;}</style>
  </defs>
  <path
     class="cls-1"
     d="M 40.33,0.66 V 29.18 H 33.32 V 6.77 H 23.67 V 29.18 H 16.66 V 6.77 H 7.01 V 29.18 H 0 V 0.66 Z M 61.72,0.01 c 10.1,0 16.26,5.66 16.26,14.91 0,9.25 -6.15,14.91 -16.26,14.91 -10.11,0 -16.29,-5.66 -16.29,-14.91 0,-9.25 6.18,-14.91 16.29,-14.91 z m 0,23.71 c 5.66,0 9.04,-3.26 9.04,-8.8 0,-5.54 -3.38,-8.8 -9.04,-8.8 -5.66,0 -9.08,3.3 -9.08,8.8 0,5.5 3.42,8.8 9.08,8.8 z m 25.34,-4.4 c 0.94,3.18 4.11,4.6 8.6,4.6 4.49,0 7.13,-1.22 7.13,-3.1 0,-5.38 -20.78,-0.81 -20.78,-12.1 0,-5.7 5.26,-8.72 12.67,-8.72 7.41,0 11.94,2.89 13.77,7.74 l -6.8,1.71 c -1.1,-2.08 -3.5,-3.54 -6.97,-3.54 -2.65,0 -5.87,0.85 -5.87,2.61 0,4.44 20.74,0.12 20.78,11.94 0.04,5.95 -5.17,9.37 -14.34,9.37 -7.94,0 -13.16,-2.93 -14.79,-8.51 z M 111.58,0.66 h 25.18 l -1.63,6.11 h -12.47 v 10.18 c 0,4.32 2.24,6.76 6.27,6.76 4.77,0 7.01,-3.42 5.5,-8.31 l 6.64,-1.87 c 2.57,9.41 -2.57,16.29 -12.14,16.29 -8.23,0 -13.28,-5.05 -13.28,-13.28 V 6.77 h -4.07 z"
     id="path6"
     style="fill:#ffffff" />
</svg>
